<svg xmlns="http://www.w3.org/2000/svg" width="50" height="50" fill="none">
    <path fill="#fff" d="M31.138 27.26c-.65-.642-1.462-.642-2.109 0-.493.49-.986.978-1.47 1.475-.133.137-.245.166-.407.075-.319-.174-.659-.315-.965-.506-1.43-.899-2.627-2.055-3.688-3.356-.526-.646-.994-1.338-1.322-2.117-.066-.157-.054-.261.075-.39.493-.476.974-.965 1.458-1.454.676-.68.676-1.475-.004-2.159-.385-.39-.77-.77-1.156-1.16-.398-.398-.791-.8-1.193-1.193-.65-.634-1.463-.634-2.11.004-.496.489-.973.99-1.478 1.471-.469.443-.705.986-.755 1.62-.078 1.032.175 2.006.53 2.954.73 1.964 1.84 3.709 3.187 5.308a19.717 19.717 0 0 0 6.53 5.109c1.144.555 2.33.982 3.618 1.052.886.05 1.657-.174 2.274-.866.423-.472.9-.903 1.347-1.355.663-.67.667-1.483.008-2.146a636.95 636.95 0 0 0-2.37-2.366Z"/>
    <rect width="48" height="48" x="1" y="1" stroke="#fff" stroke-width="2" rx="24"/>
</svg>
