<svg xmlns="http://www.w3.org/2000/svg" width="40" height="41">
    <path fill-rule="evenodd" d="M9.854 2.887c-2.491.308-4.575 1.318-6.345 3.074C1.926 7.53.973 9.198.42 11.36c-.963 3.756-.263 7.455 2.067 10.927 1.494 2.227 3.42 4.27 6.963 7.388 2.254 1.982 9.123 7.762 9.457 7.956.314.183.43.204 1.094.204.663 0 .78-.021 1.094-.204.335-.194 7.22-5.987 9.457-7.957 3.553-3.128 5.472-5.163 6.963-7.387 2.33-3.472 3.03-7.17 2.067-10.927-.554-2.163-1.507-3.83-3.09-5.4-1.578-1.566-3.267-2.47-5.481-2.932-1.106-.231-3.155-.251-4.128-.04-2.699.583-4.774 1.918-6.667 4.288l-.215.27-.215-.27c-1.86-2.33-3.904-3.664-6.506-4.25-.777-.175-2.559-.248-3.425-.14Zm2.613 2.35c2.215.382 4.132 1.65 5.647 3.735l.705.971c.582.8 1.78.8 2.362 0l.705-.97c2.07-2.852 4.952-4.195 8.093-3.772 3.486.469 6.208 2.879 7.248 6.416.821 2.796.459 5.732-1.034 8.377-1.251 2.215-3.337 4.532-6.97 7.743-1.76 1.555-9.153 7.826-9.226 7.826-.072 0-7.437-6.253-9.22-7.827-5.587-4.935-7.793-8.017-8.324-11.634-.343-2.337.152-4.852 1.342-6.825 1.8-2.986 5.305-4.618 8.672-4.04Z" clip-rule="evenodd"/>
</svg>
