<svg xmlns="http://www.w3.org/2000/svg" width="40" height="41">
    <path fill-rule="evenodd" d="M3.917 12.371c2.63-5.218 7.594-8.799 13.425-9.684 1.235-.188 3.832-.191 5.085-.008 2.507.368 4.691 1.149 6.791 2.427 4.419 2.69 7.41 7.057 8.392 12.255.208 1.097.234 4.731.043 5.8-.691 3.86-2.253 6.965-4.87 9.686l-.754.784 1.2 2.396c1.273 2.543 1.365 2.841 1.001 3.23-.069.075-.126.137-.193.184-.341.239-.95.096-4.784-.79-2.941-.679-4.417-.98-4.642-.947-.182.027-.73.134-1.217.237-4.094.872-8.605.124-12.393-2.054C6.527 33.316 3.3 28.85 2.345 23.91c-.776-4.013-.24-7.943 1.572-11.539Zm28.938-.64c-2.272-3.374-5.645-5.655-9.704-6.562-1.295-.29-4.277-.377-5.59-.165-4.383.71-8.17 3.136-10.633 6.812a15.472 15.472 0 0 0-1.046 15.367c2.279 4.67 6.616 7.832 11.896 8.677 1.65.263 4.356.092 6.157-.39l.691-.185 3.212.737 3.42.786c.087.02.047-.045-.106-.291-.165-.268-.462-.749-.87-1.567a16.556 16.556 0 0 0-.78-1.41c-.151-.246-.192-.313-.164-.428.042-.168.712-.828 1.25-1.346 3.397-3.268 5.028-7.21 4.893-11.823-.092-3.109-.907-5.657-2.626-8.212Z" clip-rule="evenodd"/>
</svg>
