<svg xmlns="http://www.w3.org/2000/svg" width="40" height="40">
        <rect width="37" height="35.79" x="1.5" y="2.23" stroke-width="3" rx="8.5"/>
        <path stroke-width="3" d="M27.83 20.13c0 4.13-3.46 7.55-7.83 7.55s-7.83-3.42-7.83-7.55 3.46-7.55 7.83-7.55 7.83 3.42 7.83 7.55Z"/>
        <mask id="a">
                <ellipse cx="30.67" cy="9.79" rx="2" ry="1.94"/>
        </mask>
        <path d="M30.67 9.79v-.05a.06.06 0 0 1 .02-.02.05.05 0 0 1-.02 0v4c2.15 0 4-1.7 4-3.93h-4Zm0-.06a.05.05 0 0 1-.02 0s0-.01 0 0a.06.06 0 0 1 0 .01c.02.01.02.03.02.05h-4a3.97 3.97 0 0 0 4 3.94v-4Zm0 .06a.1.1 0 0 1-.01.04.06.06 0 0 1-.01.02.05.05 0 0 1 .02 0v-4c-2.15 0-4 1.7-4 3.94h4Zm0 .06a.05.05 0 0 1 .02 0 .06.06 0 0 1-.01-.02.12.12 0 0 1-.01-.04h4a3.97 3.97 0 0 0-4-3.94v4Z" mask="url(#a)"/>
</svg>
