<svg xmlns="http://www.w3.org/2000/svg" width="60" height="60">
    <path d="M45.218 33.244c1.398 1.366 2.878 2.652 4.132 4.16.556.666 1.08 1.354 1.48 2.13.57 1.106.054 2.318-.934 2.384l-6.146-.002c-1.588.132-2.852-.51-3.916-1.594-.85-.866-1.64-1.788-2.458-2.684a5.747 5.747 0 0 0-1.106-.984c-.84-.544-1.566-.378-2.046.498-.49.89-.6 1.878-.648 2.868-.066 1.45-.504 1.828-1.958 1.896-3.108.146-6.056-.326-8.796-1.892-2.416-1.38-4.288-3.332-5.918-5.54-3.174-4.304-5.606-9.028-7.79-13.888-.492-1.094-.132-1.68 1.076-1.7 2.006-.037 4.012-.038 6.018-.004.816.014 1.356.48 1.67 1.25 1.084 2.668 2.412 5.206 4.078 7.56.444.626.896 1.25 1.54 1.692.714.49 1.256.328 1.592-.466.214-.506.308-1.046.354-1.588.16-1.854.18-3.708-.098-5.554-.172-1.156-.82-1.902-1.974-2.12-.586-.112-.5-.33-.216-.664.496-.58.96-.94 1.888-.94h6.944c1.094.214 1.34.706 1.488 1.808l.006 7.718c-.012.426.214 1.69.98 1.97.614.202 1.02-.29 1.386-.68 1.666-1.766 2.852-3.852 3.914-6.01.47-.952.874-1.938 1.268-2.924.292-.73.746-1.09 1.57-1.078l6.686.008c.198 0 .398.002.592.036 1.128.194 1.436.678 1.088 1.778-.55 1.726-1.616 3.166-2.658 4.608-1.116 1.544-2.308 3.034-3.414 4.586-1.016 1.418-.936 2.132.326 3.362Z"/>
    <path  fill="none" stroke-width="3" d="M58.5 30c0 15.74-12.76 28.5-28.5 28.5S1.5 45.74 1.5 30 14.26 1.5 30 1.5 58.5 14.26 58.5 30Z"/>
</svg>
