<svg width="50" height="50" viewBox="0 0 50 50" fill="none" xmlns="http://www.w3.org/2000/svg">
<path d="M31.1384 27.2603C30.4878 26.6181 29.6757 26.6181 29.0293 27.2603C28.5362 27.7492 28.0431 28.2381 27.5583 28.7354C27.4257 28.8721 27.3139 28.9011 27.1523 28.8099C26.8332 28.6359 26.4934 28.495 26.1868 28.3044C24.7573 27.4053 23.5598 26.2493 22.4991 24.9483C21.9728 24.3019 21.5046 23.6099 21.1773 22.831C21.111 22.6735 21.1234 22.5699 21.2519 22.4415C21.7449 21.965 22.2256 21.4761 22.7104 20.9871C23.3858 20.3076 23.3858 19.5121 22.7062 18.8284C22.3209 18.4389 21.9356 18.0577 21.5502 17.6682C21.1524 17.2705 20.7588 16.8686 20.3569 16.4749C19.7063 15.841 18.8942 15.841 18.2478 16.4791C17.7506 16.968 17.2741 17.4694 16.7686 17.95C16.3003 18.3934 16.0642 18.9361 16.0144 19.5701C15.9357 20.6018 16.1885 21.5755 16.5448 22.5244C17.2741 24.4883 18.3845 26.2327 19.7312 27.8321C21.5502 29.995 23.7214 31.7062 26.2614 32.9409C27.405 33.4962 28.5901 33.9229 29.8787 33.9934C30.7654 34.0431 31.5361 33.8193 32.1535 33.1274C32.5762 32.655 33.0527 32.2241 33.5002 31.7725C34.1631 31.1012 34.1673 30.2891 33.5085 29.6262C32.7212 28.8348 31.9298 28.0475 31.1384 27.2603Z" fill="white"/>
<rect x="1" y="1" width="48" height="48" rx="24" stroke="white" stroke-width="2"/>
</svg>
