<svg width="186" height="38" viewBox="0 0 186 38" fill="none" xmlns="http://www.w3.org/2000/svg">
<path d="M21.0603 22.3231C9.50566 22.3231 0.149292 19.2872 0.149292 15.5538V30.0359C0.149292 33.7692 9.50566 36.8051 21.0603 36.8051C32.6149 36.8051 41.9713 33.7692 41.9713 30.0359V15.5538C41.9713 19.2872 32.6149 22.3231 21.0603 22.3231Z" fill="white"/>
<path d="M24.2752 6.43247V10.0427C24.2752 11.7521 22.8875 13.1196 21.1839 13.1196C19.4802 13.1196 18.0926 11.7385 18.0926 10.0427V6.41879C7.95307 6.89743 0.162964 9.71452 0.162964 13.1196C0.162964 16.853 9.51934 19.8889 21.074 19.8889C32.6286 19.8889 41.985 16.853 41.985 13.1196C41.9712 9.74187 34.3048 6.93845 24.2752 6.43247Z" fill="white"/>
<path d="M19.5215 9.75555C19.5215 10.412 20.2084 11.6017 21.074 11.6017C21.9258 11.6017 22.6265 10.3709 22.6265 9.71452V6.6923C22.6265 6.03589 21.9396 1.7829 21.074 1.7829C20.2222 1.7829 19.5215 6.03589 19.5215 6.6923" fill="white"/>
<path d="M51.8497 1.81024L52.0146 36.8325" stroke="white" stroke-width="1.90624" stroke-miterlimit="10" stroke-linecap="round"/>
<path d="M78.9571 22.4598C78.8335 19.6974 78.6823 16.3744 78.6961 13.4615H78.6136C77.8992 16.0872 77.0062 18.959 76.0856 21.6667L72.9394 30.9111H69.9167L67.059 21.8034C66.2209 19.0547 65.4515 16.1555 64.8882 13.4615H64.8195C64.7233 16.265 64.5997 19.6701 64.4348 22.5829L63.9539 31.1709H60.2993L61.7282 9.79657H66.8804L69.6832 18.3846C70.4526 20.9145 71.1395 23.4444 71.6616 25.8239H71.7578C72.3348 23.4855 73.0767 20.8735 73.9011 18.3573L76.8825 9.7829H81.966L83.2025 31.1573H79.383L78.9571 22.4598Z" fill="white"/>
<path d="M95.7601 31.1846L95.4853 29.4615H95.3891C94.4549 30.6786 92.8199 31.5265 90.814 31.5265C87.6677 31.5265 85.9229 29.2837 85.9229 26.9316C85.9229 23.0342 89.4126 21.0649 95.1281 21.0923V20.8324C95.1281 19.8205 94.7297 18.1248 91.9818 18.1384C90.4568 18.1384 88.863 18.6307 87.8051 19.2871L87.022 16.7572C88.1898 16.0461 90.1957 15.3897 92.6413 15.3897C97.6149 15.3897 99.03 18.5077 99.03 21.8991V27.4649C99.03 28.8735 99.0987 30.2273 99.2773 31.1846H95.7601ZM95.238 23.6222C92.4764 23.5812 89.8248 24.1692 89.8248 26.5213C89.8248 28.0393 90.8277 28.7504 92.0643 28.7504C93.6305 28.7504 94.7571 27.7384 95.1281 26.6171C95.2105 26.3436 95.238 26.0427 95.238 25.7692V23.6222Z" fill="white"/>
<path d="M103.207 20.7094C103.207 18.6444 103.166 17.1265 103.083 15.7453H106.477L106.628 18.6855H106.738C107.507 16.5111 109.307 15.4034 110.983 15.4034C111.368 15.4034 111.588 15.4171 111.904 15.4855V19.1641C111.574 19.0957 111.23 19.0547 110.75 19.0547C108.881 19.0547 107.59 20.2444 107.232 22.0085C107.164 22.3504 107.136 22.7607 107.136 23.1846V31.1983H103.207V20.7094Z" fill="white"/>
<path d="M113.085 28.9282L118.924 21.5162C119.721 20.559 120.381 19.8068 121.191 18.9316V18.8632H113.662V15.759H125.973L125.959 18.1385L120.271 25.3863C119.501 26.3162 118.773 27.2051 117.976 28.0256V28.094H126.151V31.1983H113.072V28.9282H113.085Z" fill="white"/>
<path d="M133.048 11.4239C133.048 12.5863 132.196 13.5299 130.809 13.5299C129.504 13.5299 128.652 12.5863 128.665 11.4239C128.665 10.2342 129.545 9.31793 130.864 9.31793C132.196 9.31793 133.035 10.2205 133.048 11.4239ZM128.899 31.1846V15.7453H132.828V31.1846H128.899Z" fill="white"/>
<path d="M137.046 20.8598C137.046 18.8632 136.991 17.1948 136.923 15.7453H140.371L140.564 18.1111H140.632C141.773 16.3743 143.572 15.3897 145.949 15.3897C149.508 15.3897 152.462 18.4256 152.462 23.2393C152.462 28.8461 148.944 31.5265 145.414 31.5265C143.463 31.5265 141.841 30.7196 141.058 29.4615H140.99V37.4478H137.074V20.8598H137.046ZM140.976 24.7162C140.976 25.0991 141.003 25.4547 141.086 25.7829C141.484 27.3692 142.858 28.5179 144.534 28.5179C147.021 28.5179 148.477 26.4666 148.477 23.4307C148.477 20.6957 147.145 18.4803 144.617 18.4803C143.009 18.4803 141.512 19.6564 141.113 21.3658C141.031 21.6803 140.976 22.0222 140.976 22.3504V24.7162Z" fill="white"/>
<path d="M164.415 31.1846L164.14 29.4615H164.044C163.11 30.6786 161.475 31.5265 159.469 31.5265C156.322 31.5265 154.578 29.2837 154.578 26.9316C154.578 23.0342 158.067 21.0649 163.783 21.0923V20.8324C163.783 19.8205 163.384 18.1248 160.637 18.1384C159.111 18.1384 157.518 18.6307 156.46 19.2871L155.677 16.7572C156.844 16.0461 158.85 15.3897 161.296 15.3897C166.27 15.3897 167.685 18.5077 167.685 21.8991V27.4649C167.685 28.8735 167.753 30.2273 167.932 31.1846H164.415ZM163.893 23.6222C161.131 23.5812 158.479 24.1692 158.479 26.5213C158.479 28.0393 159.482 28.7504 160.719 28.7504C162.285 28.7504 163.412 27.7384 163.783 26.6171C163.865 26.3436 163.893 26.0427 163.893 25.7692V23.6222Z" fill="white"/>
<path d="M171.861 20.3402C171.861 18.5624 171.806 17.0855 171.738 15.7453H175.159L175.351 18.0701H175.447C176.134 16.8667 177.811 15.4034 180.393 15.4034C183.1 15.4034 185.903 17.1402 185.903 22.0222V31.1983H181.973V22.4872C181.973 20.2718 181.163 18.5897 179.02 18.5897C177.453 18.5897 176.382 19.6838 175.969 20.8872C175.846 21.2017 175.791 21.6803 175.791 22.1316V31.212H171.861V20.3402Z" fill="white"/>
</svg>
