<svg width="0" height="0" class="hidden">
  <symbol fill="none" xmlns="http://www.w3.org/2000/svg" viewBox="0 0 186 38" id="cake-logo">
    <path d="M21.0603 22.3231C9.50566 22.3231 0.149292 19.2872 0.149292 15.5538V30.0359C0.149292 33.7692 9.50566 36.8051 21.0603 36.8051C32.6149 36.8051 41.9713 33.7692 41.9713 30.0359V15.5538C41.9713 19.2872 32.6149 22.3231 21.0603 22.3231Z" fill="white"></path>
    <path d="M24.2752 6.43247V10.0427C24.2752 11.7521 22.8875 13.1196 21.1839 13.1196C19.4802 13.1196 18.0926 11.7385 18.0926 10.0427V6.41879C7.95307 6.89743 0.162964 9.71452 0.162964 13.1196C0.162964 16.853 9.51934 19.8889 21.074 19.8889C32.6286 19.8889 41.985 16.853 41.985 13.1196C41.9712 9.74187 34.3048 6.93845 24.2752 6.43247Z" fill="white"></path>
    <path d="M19.5215 9.75555C19.5215 10.412 20.2084 11.6017 21.074 11.6017C21.9258 11.6017 22.6265 10.3709 22.6265 9.71452V6.6923C22.6265 6.03589 21.9396 1.7829 21.074 1.7829C20.2222 1.7829 19.5215 6.03589 19.5215 6.6923" fill="white"></path>
    <path d="M51.8497 1.81024L52.0146 36.8325" stroke="white" stroke-width="1.90624" stroke-miterlimit="10" stroke-linecap="round"></path>
    <path d="M78.9571 22.4598C78.8335 19.6974 78.6823 16.3744 78.6961 13.4615H78.6136C77.8992 16.0872 77.0062 18.959 76.0856 21.6667L72.9394 30.9111H69.9167L67.059 21.8034C66.2209 19.0547 65.4515 16.1555 64.8882 13.4615H64.8195C64.7233 16.265 64.5997 19.6701 64.4348 22.5829L63.9539 31.1709H60.2993L61.7282 9.79657H66.8804L69.6832 18.3846C70.4526 20.9145 71.1395 23.4444 71.6616 25.8239H71.7578C72.3348 23.4855 73.0767 20.8735 73.9011 18.3573L76.8825 9.7829H81.966L83.2025 31.1573H79.383L78.9571 22.4598Z" fill="white"></path>
    <path d="M95.7601 31.1846L95.4853 29.4615H95.3891C94.4549 30.6786 92.8199 31.5265 90.814 31.5265C87.6677 31.5265 85.9229 29.2837 85.9229 26.9316C85.9229 23.0342 89.4126 21.0649 95.1281 21.0923V20.8324C95.1281 19.8205 94.7297 18.1248 91.9818 18.1384C90.4568 18.1384 88.863 18.6307 87.8051 19.2871L87.022 16.7572C88.1898 16.0461 90.1957 15.3897 92.6413 15.3897C97.6149 15.3897 99.03 18.5077 99.03 21.8991V27.4649C99.03 28.8735 99.0987 30.2273 99.2773 31.1846H95.7601ZM95.238 23.6222C92.4764 23.5812 89.8248 24.1692 89.8248 26.5213C89.8248 28.0393 90.8277 28.7504 92.0643 28.7504C93.6305 28.7504 94.7571 27.7384 95.1281 26.6171C95.2105 26.3436 95.238 26.0427 95.238 25.7692V23.6222Z" fill="white"></path>
    <path d="M103.207 20.7094C103.207 18.6444 103.166 17.1265 103.083 15.7453H106.477L106.628 18.6855H106.738C107.507 16.5111 109.307 15.4034 110.983 15.4034C111.368 15.4034 111.588 15.4171 111.904 15.4855V19.1641C111.574 19.0957 111.23 19.0547 110.75 19.0547C108.881 19.0547 107.59 20.2444 107.232 22.0085C107.164 22.3504 107.136 22.7607 107.136 23.1846V31.1983H103.207V20.7094Z" fill="white"></path>
    <path d="M113.085 28.9282L118.924 21.5162C119.721 20.559 120.381 19.8068 121.191 18.9316V18.8632H113.662V15.759H125.973L125.959 18.1385L120.271 25.3863C119.501 26.3162 118.773 27.2051 117.976 28.0256V28.094H126.151V31.1983H113.072V28.9282H113.085Z" fill="white"></path>
    <path d="M133.048 11.4239C133.048 12.5863 132.196 13.5299 130.809 13.5299C129.504 13.5299 128.652 12.5863 128.665 11.4239C128.665 10.2342 129.545 9.31793 130.864 9.31793C132.196 9.31793 133.035 10.2205 133.048 11.4239ZM128.899 31.1846V15.7453H132.828V31.1846H128.899Z" fill="white"></path>
    <path d="M137.046 20.8598C137.046 18.8632 136.991 17.1948 136.923 15.7453H140.371L140.564 18.1111H140.632C141.773 16.3743 143.572 15.3897 145.949 15.3897C149.508 15.3897 152.462 18.4256 152.462 23.2393C152.462 28.8461 148.944 31.5265 145.414 31.5265C143.463 31.5265 141.841 30.7196 141.058 29.4615H140.99V37.4478H137.074V20.8598H137.046ZM140.976 24.7162C140.976 25.0991 141.003 25.4547 141.086 25.7829C141.484 27.3692 142.858 28.5179 144.534 28.5179C147.021 28.5179 148.477 26.4666 148.477 23.4307C148.477 20.6957 147.145 18.4803 144.617 18.4803C143.009 18.4803 141.512 19.6564 141.113 21.3658C141.031 21.6803 140.976 22.0222 140.976 22.3504V24.7162Z" fill="white"></path>
    <path d="M164.415 31.1846L164.14 29.4615H164.044C163.11 30.6786 161.475 31.5265 159.469 31.5265C156.322 31.5265 154.578 29.2837 154.578 26.9316C154.578 23.0342 158.067 21.0649 163.783 21.0923V20.8324C163.783 19.8205 163.384 18.1248 160.637 18.1384C159.111 18.1384 157.518 18.6307 156.46 19.2871L155.677 16.7572C156.844 16.0461 158.85 15.3897 161.296 15.3897C166.27 15.3897 167.685 18.5077 167.685 21.8991V27.4649C167.685 28.8735 167.753 30.2273 167.932 31.1846H164.415ZM163.893 23.6222C161.131 23.5812 158.479 24.1692 158.479 26.5213C158.479 28.0393 159.482 28.7504 160.719 28.7504C162.285 28.7504 163.412 27.7384 163.783 26.6171C163.865 26.3436 163.893 26.0427 163.893 25.7692V23.6222Z" fill="white"></path>
    <path d="M171.861 20.3402C171.861 18.5624 171.806 17.0855 171.738 15.7453H175.159L175.351 18.0701H175.447C176.134 16.8667 177.811 15.4034 180.393 15.4034C183.1 15.4034 185.903 17.1402 185.903 22.0222V31.1983H181.973V22.4872C181.973 20.2718 181.163 18.5897 179.02 18.5897C177.453 18.5897 176.382 19.6838 175.969 20.8872C175.846 21.2017 175.791 21.6803 175.791 22.1316V31.212H171.861V20.3402Z" fill="white"></path>
  </symbol>
  <symbol fill="none" xmlns="http://www.w3.org/2000/svg" viewBox="0 0 50 50" id="cake-phone">
    <path d="M31.1384 27.2603C30.4878 26.6181 29.6757 26.6181 29.0293 27.2603C28.5362 27.7492 28.0431 28.2381 27.5583 28.7354C27.4257 28.8721 27.3139 28.9011 27.1523 28.8099C26.8332 28.6359 26.4934 28.495 26.1868 28.3044C24.7573 27.4053 23.5598 26.2493 22.4991 24.9483C21.9728 24.3019 21.5046 23.6099 21.1773 22.831C21.111 22.6735 21.1234 22.5699 21.2519 22.4415C21.7449 21.965 22.2256 21.4761 22.7104 20.9871C23.3858 20.3076 23.3858 19.5121 22.7062 18.8284C22.3209 18.4389 21.9356 18.0577 21.5502 17.6682C21.1524 17.2705 20.7588 16.8686 20.3569 16.4749C19.7063 15.841 18.8942 15.841 18.2478 16.4791C17.7506 16.968 17.2741 17.4694 16.7686 17.95C16.3003 18.3934 16.0642 18.9361 16.0144 19.5701C15.9357 20.6018 16.1885 21.5755 16.5448 22.5244C17.2741 24.4883 18.3845 26.2327 19.7312 27.8321C21.5502 29.995 23.7214 31.7062 26.2614 32.9409C27.405 33.4962 28.5901 33.9229 29.8787 33.9934C30.7654 34.0431 31.5361 33.8193 32.1535 33.1274C32.5762 32.655 33.0527 32.2241 33.5002 31.7725C34.1631 31.1012 34.1673 30.2891 33.5085 29.6262C32.7212 28.8348 31.9298 28.0475 31.1384 27.2603Z" fill="white"></path>
    <rect x="1" y="1" width="48" height="48" rx="24" stroke="white" stroke-width="2"></rect>
  </symbol>
  <symbol fill="none" xmlns="http://www.w3.org/2000/svg" viewBox="0 0 40 41" id="icon_comments">
    <path fill-rule="evenodd" clip-rule="evenodd" d="M3.91722 12.371C6.54727 7.15286 11.5107 3.57246 17.3419 2.68699C18.5768 2.49945 21.1741 2.49568 22.4274 2.67946C24.9339 3.04721 27.1183 3.82774 29.2185 5.1063C33.6368 7.79586 36.6274 12.1631 37.6103 17.3608C37.8178 18.4576 37.8443 22.092 37.6528 23.1618C36.9619 27.0206 35.4004 30.1265 32.7832 32.8475L32.0293 33.6312L33.2287 36.0271C34.5017 38.5701 34.5942 38.8681 34.2302 39.2579C34.1611 39.3319 34.1042 39.3939 34.037 39.441C33.6958 39.6799 33.0871 39.5368 29.2529 38.6513C26.3119 37.9721 24.836 37.6709 24.6106 37.7042C24.4289 37.731 23.8815 37.8377 23.3942 37.9414C19.3002 38.8127 14.7891 38.0649 11.0009 35.8873C6.52725 33.3156 3.29995 28.85 2.34511 23.9103C1.56934 19.8973 2.10486 15.9669 3.91722 12.371ZM32.8546 11.7309C30.5833 8.35666 27.2104 6.07569 23.1512 5.1687C21.8561 4.87935 18.8736 4.79164 17.5602 5.00436C13.1775 5.71412 9.39169 8.13962 6.92806 11.8162C3.87432 16.3732 3.47451 22.2488 5.8822 27.1832C8.16056 31.8522 12.4975 35.0154 17.7781 35.8596C19.4284 36.1233 22.1339 35.9523 23.9346 35.4703L24.6262 35.2853L27.8381 36.0223C29.6046 36.4276 31.1433 36.7811 31.2573 36.8078C31.3446 36.8282 31.3045 36.7633 31.1524 36.5168C30.9874 36.2493 30.6904 35.768 30.2812 34.9502C29.8955 34.1791 29.6477 33.7766 29.502 33.54C29.3509 33.2943 29.3096 33.2274 29.3382 33.1124C29.38 32.9441 30.0505 32.2836 30.5886 31.7658C33.9846 28.4977 35.6158 24.5551 35.4806 19.9426C35.3894 16.8345 34.5744 14.286 32.8546 11.7309Z" fill="#2E363E"></path>
  </symbol>
  <symbol fill="none" xmlns="http://www.w3.org/2000/svg" viewBox="0 0 40 41" id="icon_heart">
    <path fill-rule="evenodd" clip-rule="evenodd" d="M9.85356 2.88656C7.36278 3.19501 5.27904 4.20467 3.50947 5.9608C1.9263 7.53188 0.972743 9.19783 0.41863 11.361C-0.543604 15.1173 0.156032 18.816 2.48573 22.2885C3.97957 24.5151 5.90599 26.5588 9.44919 29.6757C11.7031 31.6583 18.5724 37.4376 18.9058 37.6317C19.22 37.8145 19.3368 37.8364 20 37.8364C20.6628 37.8364 20.7802 37.8145 21.0942 37.632C21.4286 37.4376 28.3134 31.6447 30.5508 29.6751C34.1038 26.5475 36.0225 24.5121 37.5143 22.2885C39.844 18.816 40.5436 15.1173 39.5814 11.361C39.0273 9.19783 38.0737 7.53188 36.4905 5.9608C34.9129 4.3952 33.224 3.49174 31.0098 3.02907C29.9039 2.79792 27.8555 2.77773 26.8817 2.98822C24.1831 3.57167 22.1083 4.90651 20.2149 7.27723L20 7.54637L19.7851 7.27723C17.9247 4.94774 15.8814 3.61305 13.2787 3.02729C12.5019 2.85249 10.7203 2.77927 9.85356 2.88656ZM12.4674 5.23793C14.6821 5.61875 16.599 6.88662 18.1136 8.97224C18.3753 9.33256 18.6928 9.76941 18.8192 9.94306C19.401 10.7425 20.599 10.7425 21.1808 9.94306C21.3072 9.76941 21.6247 9.33256 21.8864 8.97224C23.9567 6.12135 26.8383 4.77834 29.9786 5.20078C33.4648 5.66977 36.1872 8.07972 37.2267 11.6171C38.0483 14.4133 37.6859 17.3494 36.1928 19.9938C34.9418 22.2093 32.856 24.5261 29.2222 27.7367C27.4625 29.2915 20.0699 35.5626 19.9968 35.5627C19.9252 35.5628 12.56 29.31 10.7778 27.7361C5.19002 22.8014 2.98443 19.7189 2.45322 16.1016C2.11012 13.7655 2.60468 11.2499 3.79497 9.2766C5.59587 6.29091 9.10039 4.65887 12.4674 5.23793Z" fill="#2E363E"></path>
  </symbol>
  <symbol fill="none" xmlns="http://www.w3.org/2000/svg" viewBox="0 0 40 40" id="icon_insta">
    <g clip-path="url(#clip0_830_914)">
      <rect x="1.5" y="2.23389" width="37" height="35.7941" rx="8.5" stroke="#2E363E" stroke-width="3"></rect>
      <path d="M27.8334 20.1311C27.8334 24.2589 24.3699 27.683 20.0001 27.683C15.6302 27.683 12.1667 24.2589 12.1667 20.1311C12.1667 16.0032 15.6302 12.5791 20.0001 12.5791C24.3699 12.5791 27.8334 16.0032 27.8334 20.1311Z" stroke="#2E363E" stroke-width="3"></path>
      <mask id="path-3-inside-1_830_914" fill="white">
        <ellipse cx="30.6689" cy="9.78565" rx="2" ry="1.93971"></ellipse>
      </mask>
      <path d="M30.6689 9.78565C30.6689 9.77206 30.6723 9.75548 30.6785 9.74117C30.6841 9.7284 30.6896 9.72269 30.6908 9.72154C30.6919 9.72043 30.6912 9.72141 30.6884 9.72256C30.6868 9.72323 30.6813 9.72536 30.6689 9.72536V13.7254C32.8199 13.7254 34.6689 12.0188 34.6689 9.78565H30.6689ZM30.6689 9.72536C30.6566 9.72536 30.6511 9.72323 30.6495 9.72256C30.6467 9.72141 30.646 9.72043 30.6471 9.72154C30.6483 9.72269 30.6538 9.7284 30.6594 9.74117C30.6656 9.75548 30.6689 9.77206 30.6689 9.78565H26.6689C26.6689 12.0188 28.518 13.7254 30.6689 13.7254V9.72536ZM30.6689 9.78565C30.6689 9.79925 30.6656 9.81582 30.6594 9.83013C30.6538 9.8429 30.6483 9.84862 30.6471 9.84976C30.646 9.85088 30.6467 9.8499 30.6495 9.84874C30.6511 9.84808 30.6566 9.84595 30.6689 9.84595V5.84595C28.518 5.84595 26.6689 7.55255 26.6689 9.78565H30.6689ZM30.6689 9.84595C30.6813 9.84595 30.6868 9.84808 30.6884 9.84874C30.6912 9.8499 30.6919 9.85088 30.6908 9.84976C30.6896 9.84862 30.6841 9.8429 30.6785 9.83013C30.6723 9.81582 30.6689 9.79925 30.6689 9.78565H34.6689C34.6689 7.55255 32.8199 5.84595 30.6689 5.84595V9.84595Z" fill="#2E363E" mask="url(#path-3-inside-1_830_914)"></path>
    </g>
    <defs>
      <clipPath id="clip0_830_914">
        <rect width="40" height="38.7941" fill="white" transform="translate(0 0.733887)"></rect>
      </clipPath>
    </defs>
  </symbol>
  <symbol fill="none" xmlns="http://www.w3.org/2000/svg" viewBox="0 0 40 41" id="icon_share">
    <path fill-rule="evenodd" clip-rule="evenodd" d="M37.5589 2.59877C36.9821 2.78032 2.56541 16.599 2.40422 16.7137C2.14223 16.9004 1.94835 17.4171 2.01228 17.7581C2.11648 18.3135 2.09848 18.3036 9.38491 21.8353C13.1591 23.6647 16.2767 25.191 16.313 25.2273C16.3493 25.2636 17.8753 28.382 19.7042 32.1572C23.235 39.4454 23.2251 39.4274 23.7804 39.5317C24.1213 39.5956 24.6379 39.4017 24.8245 39.1396C25.0107 38.8781 38.8634 4.25394 38.9601 3.80838C39.0272 3.49916 39.0172 3.4248 38.8716 3.15023C38.6071 2.6515 38.0864 2.43276 37.5589 2.59877ZM25.1201 14.8628L16.9119 23.0731L11.3568 20.3782C7.49592 18.5051 5.83226 17.6639 5.90183 17.62C6.03048 17.5388 33.16 6.66796 33.2561 6.65906C33.2959 6.65545 29.6347 10.3471 25.1201 14.8628ZM29.416 21.955C26.4108 29.4716 23.9289 35.6456 23.9006 35.6751C23.8724 35.7046 22.6382 33.2312 21.158 30.1787L18.4667 24.6285L26.6539 16.439C31.1568 11.9349 34.8497 8.2584 34.8604 8.2691C34.8712 8.27981 32.4211 14.4385 29.416 21.955Z" fill="#2E363E"></path>
  </symbol>
  <symbol fill="none" xmlns="http://www.w3.org/2000/svg" viewBox="0 0 24 24" id="icon-add">
    <path d="M22.3448 10.3448H13.6552V1.65517C13.6552 0.744828 12.9103 0 12 0C11.0897 0 10.3448 0.744828 10.3448 1.65517V10.3448H1.65517C0.744828 10.3448 0 11.0897 0 12C0 12.9103 0.744828 13.6552 1.65517 13.6552H10.3448V22.3448C10.3448 23.2552 11.0897 24 12 24C12.9103 24 13.6552 23.2552 13.6552 22.3448V13.6552H22.3448C23.2552 13.6552 24 12.9103 24 12C24 11.0897 23.2552 10.3448 22.3448 10.3448Z" fill="#2E363E"></path>
  </symbol>
  <symbol fill="none" xmlns="http://www.w3.org/2000/svg" viewBox="0 0 44 50" id="icon-play">
    <path d="M44 25L0 50L2.22084e-06 0L44 25Z" fill="white"></path>
  </symbol>
  <symbol viewBox="0 0 0 0" id="icons">
    <symbol fill="none" xmlns="http://www.w3.org/2000/svg" viewBox="0 0 24 24" id="icon-star">
      <path d="M12 0L15.5267 7.1459L23.4127 8.2918L17.7063 13.8541L19.0534 21.7082L12 18L4.94658 21.7082L6.29366 13.8541L0.587322 8.2918L8.47329 7.1459L12 0Z" fill="#FFB800"></path>
    </symbol>
    <symbol fill="none" xmlns="http://www.w3.org/2000/svg" viewBox="0 0 44 50" id="icon-play">
      <path d="M44 25L0 50L2.22084e-06 0L44 25Z" fill="white"></path>
    </symbol>
    <symbol fill="none" xmlns="http://www.w3.org/2000/svg" viewBox="0 0 40 24" id="icon-slider">
      <path d="M2 10.5C1.17157 10.5 0.5 11.1716 0.5 12C0.5 12.8284 1.17157 13.5 2 13.5L2 10.5ZM39.0607 13.0607C39.6464 12.4749 39.6464 11.5251 39.0607 10.9393L29.5147 1.3934C28.9289 0.807611 27.9792 0.807611 27.3934 1.3934C26.8076 1.97918 26.8076 2.92893 27.3934 3.51472L35.8787 12L27.3934 20.4853C26.8076 21.0711 26.8076 22.0208 27.3934 22.6066C27.9792 23.1924 28.9289 23.1924 29.5147 22.6066L39.0607 13.0607ZM2 13.5L38 13.5L38 10.5L2 10.5L2 13.5Z" fill="white"></path>
    </symbol>
    <symbol fill="none" xmlns="http://www.w3.org/2000/svg" viewBox="0 0 60 60" id="vk-social">
      <g clip-path="url(#clip0_188_479)">
        <path d="M45.2181 33.244C46.6161 34.61 48.0961 35.896 49.3501 37.404C49.9061 38.07 50.4301 38.758 50.8301 39.534C51.4001 40.64 50.8841 41.852 49.8961 41.918L43.7501 41.916C42.1621 42.048 40.8981 41.406 39.8341 40.322C38.9841 39.456 38.1941 38.534 37.3761 37.638C37.0514 37.2637 36.6796 36.9329 36.2701 36.654C35.4301 36.11 34.7041 36.276 34.2241 37.152C33.7341 38.042 33.6241 39.03 33.5761 40.02C33.5101 41.47 33.0721 41.848 31.6181 41.916C28.5101 42.062 25.5621 41.59 22.8221 40.024C20.4061 38.644 18.5341 36.692 16.9041 34.484C13.7301 30.18 11.2981 25.456 9.11406 20.596C8.62206 19.502 8.98206 18.916 10.1901 18.896C12.1959 18.8594 14.2022 18.8581 16.2081 18.892C17.0241 18.906 17.5641 19.372 17.8781 20.142C18.9621 22.81 20.2901 25.348 21.9561 27.702C22.4001 28.328 22.8521 28.952 23.4961 29.394C24.2101 29.884 24.7521 29.722 25.0881 28.928C25.3021 28.422 25.3961 27.882 25.4421 27.34C25.6021 25.486 25.6221 23.632 25.3441 21.786C25.1721 20.63 24.5241 19.884 23.3701 19.666C22.7841 19.554 22.8701 19.336 23.1541 19.002C23.6501 18.422 24.1141 18.062 25.0421 18.062H31.9861C33.0801 18.276 33.3261 18.768 33.4741 19.87L33.4801 27.588C33.4681 28.014 33.6941 29.278 34.4601 29.558C35.0741 29.76 35.4801 29.268 35.8461 28.878C37.5121 27.112 38.6981 25.026 39.7601 22.868C40.2301 21.916 40.6341 20.93 41.0281 19.944C41.3201 19.214 41.7741 18.854 42.5981 18.866L49.2841 18.874C49.4821 18.874 49.6821 18.876 49.8761 18.91C51.0041 19.104 51.3121 19.588 50.9641 20.688C50.4141 22.414 49.3481 23.854 48.3061 25.296C47.1901 26.84 45.9981 28.33 44.8921 29.882C43.8761 31.3 43.9561 32.014 45.2181 33.244Z" fill="#2E363E"></path>
        <path d="M58.5 30C58.5 45.7401 45.7401 58.5 30 58.5C14.2599 58.5 1.5 45.7401 1.5 30C1.5 14.2599 14.2599 1.5 30 1.5C45.7401 1.5 58.5 14.2599 58.5 30Z" stroke="#2E363E" stroke-width="3"></path>
      </g>
      <defs>
        <clipPath id="clip0_188_479">
          <rect width="60" height="60" fill="white"></rect>
        </clipPath>
      </defs>
    </symbol>
    <symbol fill="none" xmlns="http://www.w3.org/2000/svg" viewBox="0 0 40 40" id="icon_insta">
      <g clip-path="url(#clip0_830_914)">
        <rect x="1.5" y="2.23389" width="37" height="35.7941" rx="8.5" stroke="#2E363E" stroke-width="3"></rect>
        <path d="M27.8334 20.1311C27.8334 24.2589 24.3699 27.683 20.0001 27.683C15.6302 27.683 12.1667 24.2589 12.1667 20.1311C12.1667 16.0032 15.6302 12.5791 20.0001 12.5791C24.3699 12.5791 27.8334 16.0032 27.8334 20.1311Z" stroke="#2E363E" stroke-width="3"></path>
        <mask id="path-3-inside-1_830_914" fill="white">
          <ellipse cx="30.6689" cy="9.78565" rx="2" ry="1.93971"></ellipse>
        </mask>
        <path d="M30.6689 9.78565C30.6689 9.77206 30.6723 9.75548 30.6785 9.74117C30.6841 9.7284 30.6896 9.72269 30.6908 9.72154C30.6919 9.72043 30.6912 9.72141 30.6884 9.72256C30.6868 9.72323 30.6813 9.72536 30.6689 9.72536V13.7254C32.8199 13.7254 34.6689 12.0188 34.6689 9.78565H30.6689ZM30.6689 9.72536C30.6566 9.72536 30.6511 9.72323 30.6495 9.72256C30.6467 9.72141 30.646 9.72043 30.6471 9.72154C30.6483 9.72269 30.6538 9.7284 30.6594 9.74117C30.6656 9.75548 30.6689 9.77206 30.6689 9.78565H26.6689C26.6689 12.0188 28.518 13.7254 30.6689 13.7254V9.72536ZM30.6689 9.78565C30.6689 9.79925 30.6656 9.81582 30.6594 9.83013C30.6538 9.8429 30.6483 9.84862 30.6471 9.84976C30.646 9.85088 30.6467 9.8499 30.6495 9.84874C30.6511 9.84808 30.6566 9.84595 30.6689 9.84595V5.84595C28.518 5.84595 26.6689 7.55255 26.6689 9.78565H30.6689ZM30.6689 9.84595C30.6813 9.84595 30.6868 9.84808 30.6884 9.84874C30.6912 9.8499 30.6919 9.85088 30.6908 9.84976C30.6896 9.84862 30.6841 9.8429 30.6785 9.83013C30.6723 9.81582 30.6689 9.79925 30.6689 9.78565H34.6689C34.6689 7.55255 32.8199 5.84595 30.6689 5.84595V9.84595Z" fill="#2E363E" mask="url(#path-3-inside-1_830_914)"></path>
      </g>
      <defs>
        <clipPath id="clip0_830_914">
          <rect width="40" height="38.7941" fill="white" transform="translate(0 0.733887)"></rect>
        </clipPath>
      </defs>
    </symbol>
    <symbol fill="none" xmlns="http://www.w3.org/2000/svg" viewBox="0 0 40 41" id="icon_heart">
      <path fill-rule="evenodd" clip-rule="evenodd" d="M9.85356 2.88656C7.36278 3.19501 5.27904 4.20467 3.50947 5.9608C1.9263 7.53188 0.972743 9.19783 0.41863 11.361C-0.543604 15.1173 0.156032 18.816 2.48573 22.2885C3.97957 24.5151 5.90599 26.5588 9.44919 29.6757C11.7031 31.6583 18.5724 37.4376 18.9058 37.6317C19.22 37.8145 19.3368 37.8364 20 37.8364C20.6628 37.8364 20.7802 37.8145 21.0942 37.632C21.4286 37.4376 28.3134 31.6447 30.5508 29.6751C34.1038 26.5475 36.0225 24.5121 37.5143 22.2885C39.844 18.816 40.5436 15.1173 39.5814 11.361C39.0273 9.19783 38.0737 7.53188 36.4905 5.9608C34.9129 4.3952 33.224 3.49174 31.0098 3.02907C29.9039 2.79792 27.8555 2.77773 26.8817 2.98822C24.1831 3.57167 22.1083 4.90651 20.2149 7.27723L20 7.54637L19.7851 7.27723C17.9247 4.94774 15.8814 3.61305 13.2787 3.02729C12.5019 2.85249 10.7203 2.77927 9.85356 2.88656ZM12.4674 5.23793C14.6821 5.61875 16.599 6.88662 18.1136 8.97224C18.3753 9.33256 18.6928 9.76941 18.8192 9.94306C19.401 10.7425 20.599 10.7425 21.1808 9.94306C21.3072 9.76941 21.6247 9.33256 21.8864 8.97224C23.9567 6.12135 26.8383 4.77834 29.9786 5.20078C33.4648 5.66977 36.1872 8.07972 37.2267 11.6171C38.0483 14.4133 37.6859 17.3494 36.1928 19.9938C34.9418 22.2093 32.856 24.5261 29.2222 27.7367C27.4625 29.2915 20.0699 35.5626 19.9968 35.5627C19.9252 35.5628 12.56 29.31 10.7778 27.7361C5.19002 22.8014 2.98443 19.7189 2.45322 16.1016C2.11012 13.7655 2.60468 11.2499 3.79497 9.2766C5.59587 6.29091 9.10039 4.65887 12.4674 5.23793Z" fill="#2E363E"></path>
    </symbol>
    <symbol fill="none" xmlns="http://www.w3.org/2000/svg" viewBox="0 0 60 60" id="insta-social">
      <g clip-path="url(#clip0_188_480)">
        <path d="M58.5 30C58.5 45.7401 45.7401 58.5 30 58.5C14.2599 58.5 1.5 45.7401 1.5 30C1.5 14.2599 14.2599 1.5 30 1.5C45.7401 1.5 58.5 14.2599 58.5 30Z" stroke="#2E363E" stroke-width="3"></path>
        <path d="M40.606 15H19.394C18.2291 15.0016 17.1124 15.465 16.2887 16.2887C15.465 17.1124 15.0016 18.2291 15 19.394V40.606C15.0016 41.7709 15.465 42.8876 16.2887 43.7113C17.1124 44.535 18.2291 44.9984 19.394 45H40.606C41.7709 44.9984 42.8876 44.535 43.7113 43.7113C44.535 42.8876 44.9984 41.7709 45 40.606V19.394C44.9984 18.2291 44.535 17.1124 43.7113 16.2887C42.8876 15.465 41.7709 15.0016 40.606 15ZM30.058 37.852C27.961 37.8494 25.9505 37.0151 24.4677 35.5323C22.9849 34.0495 22.1506 32.039 22.148 29.942C22.1506 27.8449 22.9849 25.8345 24.4677 24.3517C25.9505 22.8689 27.961 22.0346 30.058 22.032C32.1551 22.0346 34.1655 22.8689 35.6483 24.3517C37.1311 25.8345 37.9654 27.8449 37.968 29.942C37.9654 32.039 37.1311 34.0495 35.6483 35.5323C34.1655 37.0151 32.1551 37.8494 30.058 37.852ZM38.848 23.79C38.1485 23.7895 37.4778 23.5114 36.9832 23.0168C36.4886 22.5222 36.2105 21.8515 36.21 21.152C36.2111 20.4529 36.4894 19.7827 36.9839 19.2885C37.4785 18.7944 38.1489 18.5165 38.848 18.516C39.5468 18.5171 40.2167 18.7951 40.7108 19.2892C41.2049 19.7834 41.4829 20.4532 41.484 21.152C41.4835 21.8511 41.2056 22.5215 40.7115 23.0161C40.2173 23.5106 39.5471 23.7889 38.848 23.79Z" fill="#2E363E"></path>
        <path d="M38.817 20.25C38.5836 20.25 38.3598 20.3427 38.1947 20.5077C38.0297 20.6728 37.937 20.8966 37.937 21.13C37.937 21.3634 38.0297 21.5872 38.1947 21.7523C38.3598 21.9173 38.5836 22.01 38.817 22.01C39.0504 22.01 39.2742 21.9173 39.4393 21.7523C39.6043 21.5872 39.697 21.3634 39.697 21.13C39.697 20.8966 39.6043 20.6728 39.4393 20.5077C39.2742 20.3427 39.0504 20.25 38.817 20.25ZM30.029 23.766C28.3977 23.7676 26.8336 24.4162 25.6799 25.5695C24.5262 26.7228 23.8771 28.2867 23.875 29.918C23.8771 31.549 24.526 33.1125 25.6792 34.2658C26.8325 35.419 28.396 36.0679 30.027 36.07C31.658 36.0679 33.2215 35.419 34.3748 34.2658C35.528 33.1125 36.1769 31.549 36.179 29.918C36.1769 28.287 35.528 26.7235 34.3748 25.5702C33.2215 24.417 31.658 23.7681 30.027 23.766H30.029Z" fill="#2E363E"></path>
      </g>
      <defs>
        <clipPath id="clip0_188_480">
          <rect width="60" height="60" fill="white"></rect>
        </clipPath>
      </defs>
    </symbol>
    <symbol fill="none" xmlns="http://www.w3.org/2000/svg" viewBox="0 0 40 41" id="icon_share">
      <path fill-rule="evenodd" clip-rule="evenodd" d="M37.5589 2.59877C36.9821 2.78032 2.56541 16.599 2.40422 16.7137C2.14223 16.9004 1.94835 17.4171 2.01228 17.7581C2.11648 18.3135 2.09848 18.3036 9.38491 21.8353C13.1591 23.6647 16.2767 25.191 16.313 25.2273C16.3493 25.2636 17.8753 28.382 19.7042 32.1572C23.235 39.4454 23.2251 39.4274 23.7804 39.5317C24.1213 39.5956 24.6379 39.4017 24.8245 39.1396C25.0107 38.8781 38.8634 4.25394 38.9601 3.80838C39.0272 3.49916 39.0172 3.4248 38.8716 3.15023C38.6071 2.6515 38.0864 2.43276 37.5589 2.59877ZM25.1201 14.8628L16.9119 23.0731L11.3568 20.3782C7.49592 18.5051 5.83226 17.6639 5.90183 17.62C6.03048 17.5388 33.16 6.66796 33.2561 6.65906C33.2959 6.65545 29.6347 10.3471 25.1201 14.8628ZM29.416 21.955C26.4108 29.4716 23.9289 35.6456 23.9006 35.6751C23.8724 35.7046 22.6382 33.2312 21.158 30.1787L18.4667 24.6285L26.6539 16.439C31.1568 11.9349 34.8497 8.2584 34.8604 8.2691C34.8712 8.27981 32.4211 14.4385 29.416 21.955Z" fill="#2E363E"></path>
    </symbol>
    <symbol fill="none" xmlns="http://www.w3.org/2000/svg" viewBox="0 0 40 41" id="icon_comments">
      <path fill-rule="evenodd" clip-rule="evenodd" d="M3.91722 12.371C6.54727 7.15286 11.5107 3.57246 17.3419 2.68699C18.5768 2.49945 21.1741 2.49568 22.4274 2.67946C24.9339 3.04721 27.1183 3.82774 29.2185 5.1063C33.6368 7.79586 36.6274 12.1631 37.6103 17.3608C37.8178 18.4576 37.8443 22.092 37.6528 23.1618C36.9619 27.0206 35.4004 30.1265 32.7832 32.8475L32.0293 33.6312L33.2287 36.0271C34.5017 38.5701 34.5942 38.8681 34.2302 39.2579C34.1611 39.3319 34.1042 39.3939 34.037 39.441C33.6958 39.6799 33.0871 39.5368 29.2529 38.6513C26.3119 37.9721 24.836 37.6709 24.6106 37.7042C24.4289 37.731 23.8815 37.8377 23.3942 37.9414C19.3002 38.8127 14.7891 38.0649 11.0009 35.8873C6.52725 33.3156 3.29995 28.85 2.34511 23.9103C1.56934 19.8973 2.10486 15.9669 3.91722 12.371ZM32.8546 11.7309C30.5833 8.35666 27.2104 6.07569 23.1512 5.1687C21.8561 4.87935 18.8736 4.79164 17.5602 5.00436C13.1775 5.71412 9.39169 8.13962 6.92806 11.8162C3.87432 16.3732 3.47451 22.2488 5.8822 27.1832C8.16056 31.8522 12.4975 35.0154 17.7781 35.8596C19.4284 36.1233 22.1339 35.9523 23.9346 35.4703L24.6262 35.2853L27.8381 36.0223C29.6046 36.4276 31.1433 36.7811 31.2573 36.8078C31.3446 36.8282 31.3045 36.7633 31.1524 36.5168C30.9874 36.2493 30.6904 35.768 30.2812 34.9502C29.8955 34.1791 29.6477 33.7766 29.502 33.54C29.3509 33.2943 29.3096 33.2274 29.3382 33.1124C29.38 32.9441 30.0505 32.2836 30.5886 31.7658C33.9846 28.4977 35.6158 24.5551 35.4806 19.9426C35.3894 16.8345 34.5744 14.286 32.8546 11.7309Z" fill="#2E363E"></path>
    </symbol>
    <symbol fill="none" xmlns="http://www.w3.org/2000/svg" viewBox="0 0 186 38" id="cake-logo">
      <path d="M21.0603 22.3231C9.50566 22.3231 0.149292 19.2872 0.149292 15.5538V30.0359C0.149292 33.7692 9.50566 36.8051 21.0603 36.8051C32.6149 36.8051 41.9713 33.7692 41.9713 30.0359V15.5538C41.9713 19.2872 32.6149 22.3231 21.0603 22.3231Z" fill="white"></path>
      <path d="M24.2752 6.43247V10.0427C24.2752 11.7521 22.8875 13.1196 21.1839 13.1196C19.4802 13.1196 18.0926 11.7385 18.0926 10.0427V6.41879C7.95307 6.89743 0.162964 9.71452 0.162964 13.1196C0.162964 16.853 9.51934 19.8889 21.074 19.8889C32.6286 19.8889 41.985 16.853 41.985 13.1196C41.9712 9.74187 34.3048 6.93845 24.2752 6.43247Z" fill="white"></path>
      <path d="M19.5215 9.75555C19.5215 10.412 20.2084 11.6017 21.074 11.6017C21.9258 11.6017 22.6265 10.3709 22.6265 9.71452V6.6923C22.6265 6.03589 21.9396 1.7829 21.074 1.7829C20.2222 1.7829 19.5215 6.03589 19.5215 6.6923" fill="white"></path>
      <path d="M51.8497 1.81024L52.0146 36.8325" stroke="white" stroke-width="1.90624" stroke-miterlimit="10" stroke-linecap="round"></path>
      <path d="M78.9571 22.4598C78.8335 19.6974 78.6823 16.3744 78.6961 13.4615H78.6136C77.8992 16.0872 77.0062 18.959 76.0856 21.6667L72.9394 30.9111H69.9167L67.059 21.8034C66.2209 19.0547 65.4515 16.1555 64.8882 13.4615H64.8195C64.7233 16.265 64.5997 19.6701 64.4348 22.5829L63.9539 31.1709H60.2993L61.7282 9.79657H66.8804L69.6832 18.3846C70.4526 20.9145 71.1395 23.4444 71.6616 25.8239H71.7578C72.3348 23.4855 73.0767 20.8735 73.9011 18.3573L76.8825 9.7829H81.966L83.2025 31.1573H79.383L78.9571 22.4598Z" fill="white"></path>
      <path d="M95.7601 31.1846L95.4853 29.4615H95.3891C94.4549 30.6786 92.8199 31.5265 90.814 31.5265C87.6677 31.5265 85.9229 29.2837 85.9229 26.9316C85.9229 23.0342 89.4126 21.0649 95.1281 21.0923V20.8324C95.1281 19.8205 94.7297 18.1248 91.9818 18.1384C90.4568 18.1384 88.863 18.6307 87.8051 19.2871L87.022 16.7572C88.1898 16.0461 90.1957 15.3897 92.6413 15.3897C97.6149 15.3897 99.03 18.5077 99.03 21.8991V27.4649C99.03 28.8735 99.0987 30.2273 99.2773 31.1846H95.7601ZM95.238 23.6222C92.4764 23.5812 89.8248 24.1692 89.8248 26.5213C89.8248 28.0393 90.8277 28.7504 92.0643 28.7504C93.6305 28.7504 94.7571 27.7384 95.1281 26.6171C95.2105 26.3436 95.238 26.0427 95.238 25.7692V23.6222Z" fill="white"></path>
      <path d="M103.207 20.7094C103.207 18.6444 103.166 17.1265 103.083 15.7453H106.477L106.628 18.6855H106.738C107.507 16.5111 109.307 15.4034 110.983 15.4034C111.368 15.4034 111.588 15.4171 111.904 15.4855V19.1641C111.574 19.0957 111.23 19.0547 110.75 19.0547C108.881 19.0547 107.59 20.2444 107.232 22.0085C107.164 22.3504 107.136 22.7607 107.136 23.1846V31.1983H103.207V20.7094Z" fill="white"></path>
      <path d="M113.085 28.9282L118.924 21.5162C119.721 20.559 120.381 19.8068 121.191 18.9316V18.8632H113.662V15.759H125.973L125.959 18.1385L120.271 25.3863C119.501 26.3162 118.773 27.2051 117.976 28.0256V28.094H126.151V31.1983H113.072V28.9282H113.085Z" fill="white"></path>
      <path d="M133.048 11.4239C133.048 12.5863 132.196 13.5299 130.809 13.5299C129.504 13.5299 128.652 12.5863 128.665 11.4239C128.665 10.2342 129.545 9.31793 130.864 9.31793C132.196 9.31793 133.035 10.2205 133.048 11.4239ZM128.899 31.1846V15.7453H132.828V31.1846H128.899Z" fill="white"></path>
      <path d="M137.046 20.8598C137.046 18.8632 136.991 17.1948 136.923 15.7453H140.371L140.564 18.1111H140.632C141.773 16.3743 143.572 15.3897 145.949 15.3897C149.508 15.3897 152.462 18.4256 152.462 23.2393C152.462 28.8461 148.944 31.5265 145.414 31.5265C143.463 31.5265 141.841 30.7196 141.058 29.4615H140.99V37.4478H137.074V20.8598H137.046ZM140.976 24.7162C140.976 25.0991 141.003 25.4547 141.086 25.7829C141.484 27.3692 142.858 28.5179 144.534 28.5179C147.021 28.5179 148.477 26.4666 148.477 23.4307C148.477 20.6957 147.145 18.4803 144.617 18.4803C143.009 18.4803 141.512 19.6564 141.113 21.3658C141.031 21.6803 140.976 22.0222 140.976 22.3504V24.7162Z" fill="white"></path>
      <path d="M164.415 31.1846L164.14 29.4615H164.044C163.11 30.6786 161.475 31.5265 159.469 31.5265C156.322 31.5265 154.578 29.2837 154.578 26.9316C154.578 23.0342 158.067 21.0649 163.783 21.0923V20.8324C163.783 19.8205 163.384 18.1248 160.637 18.1384C159.111 18.1384 157.518 18.6307 156.46 19.2871L155.677 16.7572C156.844 16.0461 158.85 15.3897 161.296 15.3897C166.27 15.3897 167.685 18.5077 167.685 21.8991V27.4649C167.685 28.8735 167.753 30.2273 167.932 31.1846H164.415ZM163.893 23.6222C161.131 23.5812 158.479 24.1692 158.479 26.5213C158.479 28.0393 159.482 28.7504 160.719 28.7504C162.285 28.7504 163.412 27.7384 163.783 26.6171C163.865 26.3436 163.893 26.0427 163.893 25.7692V23.6222Z" fill="white"></path>
      <path d="M171.861 20.3402C171.861 18.5624 171.806 17.0855 171.738 15.7453H175.159L175.351 18.0701H175.447C176.134 16.8667 177.811 15.4034 180.393 15.4034C183.1 15.4034 185.903 17.1402 185.903 22.0222V31.1983H181.973V22.4872C181.973 20.2718 181.163 18.5897 179.02 18.5897C177.453 18.5897 176.382 19.6838 175.969 20.8872C175.846 21.2017 175.791 21.6803 175.791 22.1316V31.212H171.861V20.3402Z" fill="white"></path>
    </symbol>
  </symbol>
  <symbol fill="none" xmlns="http://www.w3.org/2000/svg" viewBox="0 0 40 24" id="icon-slider">
    <path d="M2 10.5C1.17157 10.5 0.5 11.1716 0.5 12C0.5 12.8284 1.17157 13.5 2 13.5L2 10.5ZM39.0607 13.0607C39.6464 12.4749 39.6464 11.5251 39.0607 10.9393L29.5147 1.3934C28.9289 0.807611 27.9792 0.807611 27.3934 1.3934C26.8076 1.97918 26.8076 2.92893 27.3934 3.51472L35.8787 12L27.3934 20.4853C26.8076 21.0711 26.8076 22.0208 27.3934 22.6066C27.9792 23.1924 28.9289 23.1924 29.5147 22.6066L39.0607 13.0607ZM2 13.5L38 13.5L38 10.5L2 10.5L2 13.5Z" fill="white"></path>
  </symbol>
  <symbol fill="none" xmlns="http://www.w3.org/2000/svg" viewBox="0 0 24 24" id="icon-star">
    <path d="M12 0L15.5267 7.1459L23.4127 8.2918L17.7063 13.8541L19.0534 21.7082L12 18L4.94658 21.7082L6.29366 13.8541L0.587322 8.2918L8.47329 7.1459L12 0Z" fill="#FFB800"></path>
  </symbol>
  <symbol fill="none" xmlns="http://www.w3.org/2000/svg" viewBox="0 0 60 60" id="insta-social">
    <g clip-path="url(#clip0_188_480)">
      <path d="M58.5 30C58.5 45.7401 45.7401 58.5 30 58.5C14.2599 58.5 1.5 45.7401 1.5 30C1.5 14.2599 14.2599 1.5 30 1.5C45.7401 1.5 58.5 14.2599 58.5 30Z" stroke="#2E363E" stroke-width="3"></path>
      <path d="M40.606 15H19.394C18.2291 15.0016 17.1124 15.465 16.2887 16.2887C15.465 17.1124 15.0016 18.2291 15 19.394V40.606C15.0016 41.7709 15.465 42.8876 16.2887 43.7113C17.1124 44.535 18.2291 44.9984 19.394 45H40.606C41.7709 44.9984 42.8876 44.535 43.7113 43.7113C44.535 42.8876 44.9984 41.7709 45 40.606V19.394C44.9984 18.2291 44.535 17.1124 43.7113 16.2887C42.8876 15.465 41.7709 15.0016 40.606 15ZM30.058 37.852C27.961 37.8494 25.9505 37.0151 24.4677 35.5323C22.9849 34.0495 22.1506 32.039 22.148 29.942C22.1506 27.8449 22.9849 25.8345 24.4677 24.3517C25.9505 22.8689 27.961 22.0346 30.058 22.032C32.1551 22.0346 34.1655 22.8689 35.6483 24.3517C37.1311 25.8345 37.9654 27.8449 37.968 29.942C37.9654 32.039 37.1311 34.0495 35.6483 35.5323C34.1655 37.0151 32.1551 37.8494 30.058 37.852ZM38.848 23.79C38.1485 23.7895 37.4778 23.5114 36.9832 23.0168C36.4886 22.5222 36.2105 21.8515 36.21 21.152C36.2111 20.4529 36.4894 19.7827 36.9839 19.2885C37.4785 18.7944 38.1489 18.5165 38.848 18.516C39.5468 18.5171 40.2167 18.7951 40.7108 19.2892C41.2049 19.7834 41.4829 20.4532 41.484 21.152C41.4835 21.8511 41.2056 22.5215 40.7115 23.0161C40.2173 23.5106 39.5471 23.7889 38.848 23.79Z" fill="#2E363E"></path>
      <path d="M38.817 20.25C38.5836 20.25 38.3598 20.3427 38.1947 20.5077C38.0297 20.6728 37.937 20.8966 37.937 21.13C37.937 21.3634 38.0297 21.5872 38.1947 21.7523C38.3598 21.9173 38.5836 22.01 38.817 22.01C39.0504 22.01 39.2742 21.9173 39.4393 21.7523C39.6043 21.5872 39.697 21.3634 39.697 21.13C39.697 20.8966 39.6043 20.6728 39.4393 20.5077C39.2742 20.3427 39.0504 20.25 38.817 20.25ZM30.029 23.766C28.3977 23.7676 26.8336 24.4162 25.6799 25.5695C24.5262 26.7228 23.8771 28.2867 23.875 29.918C23.8771 31.549 24.526 33.1125 25.6792 34.2658C26.8325 35.419 28.396 36.0679 30.027 36.07C31.658 36.0679 33.2215 35.419 34.3748 34.2658C35.528 33.1125 36.1769 31.549 36.179 29.918C36.1769 28.287 35.528 26.7235 34.3748 25.5702C33.2215 24.417 31.658 23.7681 30.027 23.766H30.029Z" fill="#2E363E"></path>
    </g>
    <defs>
      <clipPath id="clip0_188_480">
        <rect width="60" height="60" fill="white"></rect>
      </clipPath>
    </defs>
  </symbol>
  <symbol fill="none" xmlns="http://www.w3.org/2000/svg" viewBox="0 0 60 60" id="tg-social">
    <g clip-path="url(#clip0_188_478)">
      <path d="M58.5 30C58.5 45.7401 45.7401 58.5 30 58.5C14.2599 58.5 1.5 45.7401 1.5 30C1.5 14.2599 14.2599 1.5 30 1.5C45.7401 1.5 58.5 14.2599 58.5 30Z" stroke="#2E363E" stroke-width="3"></path>
      <path d="M43.8859 14.8142L11.3799 27.3502C9.16188 28.2402 9.17388 29.4782 10.9739 30.0302L19.3179 32.6322L38.6279 20.4522C39.5399 19.8942 40.3739 20.1922 39.6879 20.8022L24.0459 34.9222H24.0419H24.0459L23.4699 43.5242C24.3119 43.5242 24.6839 43.1382 25.1579 42.6822L29.2119 38.7402L37.6439 44.9682C39.1979 45.8242 40.3139 45.3842 40.7019 43.5282L46.2359 17.4442C46.8019 15.1722 45.3679 14.1442 43.8859 14.8142Z" fill="#2E363E"></path>
    </g>
    <defs>
      <clipPath id="clip0_188_478">
        <rect width="60" height="60" fill="white"></rect>
      </clipPath>
    </defs>
  </symbol>
  <symbol fill="none" xmlns="http://www.w3.org/2000/svg" viewBox="0 0 60 60" id="vk-social">
    <g clip-path="url(#clip0_188_479)">
      <path d="M45.2181 33.244C46.6161 34.61 48.0961 35.896 49.3501 37.404C49.9061 38.07 50.4301 38.758 50.8301 39.534C51.4001 40.64 50.8841 41.852 49.8961 41.918L43.7501 41.916C42.1621 42.048 40.8981 41.406 39.8341 40.322C38.9841 39.456 38.1941 38.534 37.3761 37.638C37.0514 37.2637 36.6796 36.9329 36.2701 36.654C35.4301 36.11 34.7041 36.276 34.2241 37.152C33.7341 38.042 33.6241 39.03 33.5761 40.02C33.5101 41.47 33.0721 41.848 31.6181 41.916C28.5101 42.062 25.5621 41.59 22.8221 40.024C20.4061 38.644 18.5341 36.692 16.9041 34.484C13.7301 30.18 11.2981 25.456 9.11406 20.596C8.62206 19.502 8.98206 18.916 10.1901 18.896C12.1959 18.8594 14.2022 18.8581 16.2081 18.892C17.0241 18.906 17.5641 19.372 17.8781 20.142C18.9621 22.81 20.2901 25.348 21.9561 27.702C22.4001 28.328 22.8521 28.952 23.4961 29.394C24.2101 29.884 24.7521 29.722 25.0881 28.928C25.3021 28.422 25.3961 27.882 25.4421 27.34C25.6021 25.486 25.6221 23.632 25.3441 21.786C25.1721 20.63 24.5241 19.884 23.3701 19.666C22.7841 19.554 22.8701 19.336 23.1541 19.002C23.6501 18.422 24.1141 18.062 25.0421 18.062H31.9861C33.0801 18.276 33.3261 18.768 33.4741 19.87L33.4801 27.588C33.4681 28.014 33.6941 29.278 34.4601 29.558C35.0741 29.76 35.4801 29.268 35.8461 28.878C37.5121 27.112 38.6981 25.026 39.7601 22.868C40.2301 21.916 40.6341 20.93 41.0281 19.944C41.3201 19.214 41.7741 18.854 42.5981 18.866L49.2841 18.874C49.4821 18.874 49.6821 18.876 49.8761 18.91C51.0041 19.104 51.3121 19.588 50.9641 20.688C50.4141 22.414 49.3481 23.854 48.3061 25.296C47.1901 26.84 45.9981 28.33 44.8921 29.882C43.8761 31.3 43.9561 32.014 45.2181 33.244Z" fill="#2E363E"></path>
      <path d="M58.5 30C58.5 45.7401 45.7401 58.5 30 58.5C14.2599 58.5 1.5 45.7401 1.5 30C1.5 14.2599 14.2599 1.5 30 1.5C45.7401 1.5 58.5 14.2599 58.5 30Z" stroke="#2E363E" stroke-width="3"></path>
    </g>
    <defs>
      <clipPath id="clip0_188_479">
        <rect width="60" height="60" fill="white"></rect>
      </clipPath>
    </defs>
  </symbol>
</svg>