<svg width="40" height="41" viewBox="0 0 40 41" fill="none" xmlns="http://www.w3.org/2000/svg">
<path fill-rule="evenodd" clip-rule="evenodd" d="M37.5589 2.59877C36.9821 2.78032 2.56541 16.599 2.40422 16.7137C2.14223 16.9004 1.94835 17.4171 2.01228 17.7581C2.11648 18.3135 2.09848 18.3036 9.38491 21.8353C13.1591 23.6647 16.2767 25.191 16.313 25.2273C16.3493 25.2636 17.8753 28.382 19.7042 32.1572C23.235 39.4454 23.2251 39.4274 23.7804 39.5317C24.1213 39.5956 24.6379 39.4017 24.8245 39.1396C25.0107 38.8781 38.8634 4.25394 38.9601 3.80838C39.0272 3.49916 39.0172 3.4248 38.8716 3.15023C38.6071 2.6515 38.0864 2.43276 37.5589 2.59877ZM25.1201 14.8628L16.9119 23.0731L11.3568 20.3782C7.49592 18.5051 5.83226 17.6639 5.90183 17.62C6.03048 17.5388 33.16 6.66796 33.2561 6.65906C33.2959 6.65545 29.6347 10.3471 25.1201 14.8628ZM29.416 21.955C26.4108 29.4716 23.9289 35.6456 23.9006 35.6751C23.8724 35.7046 22.6382 33.2312 21.158 30.1787L18.4667 24.6285L26.6539 16.439C31.1568 11.9349 34.8497 8.2584 34.8604 8.2691C34.8712 8.27981 32.4211 14.4385 29.416 21.955Z" fill="#2E363E"/>
</svg>
