<svg width="40" height="40" viewBox="0 0 40 40" fill="none" xmlns="http://www.w3.org/2000/svg">
<g clip-path="url(#clip0_830_914)">
<rect x="1.5" y="2.23389" width="37" height="35.7941" rx="8.5" stroke="#2E363E" stroke-width="3"/>
<path d="M27.8334 20.1311C27.8334 24.2589 24.3699 27.683 20.0001 27.683C15.6302 27.683 12.1667 24.2589 12.1667 20.1311C12.1667 16.0032 15.6302 12.5791 20.0001 12.5791C24.3699 12.5791 27.8334 16.0032 27.8334 20.1311Z" stroke="#2E363E" stroke-width="3"/>
<mask id="path-3-inside-1_830_914" fill="white">
<ellipse cx="30.6689" cy="9.78565" rx="2" ry="1.93971"/>
</mask>
<path d="M30.6689 9.78565C30.6689 9.77206 30.6723 9.75548 30.6785 9.74117C30.6841 9.7284 30.6896 9.72269 30.6908 9.72154C30.6919 9.72043 30.6912 9.72141 30.6884 9.72256C30.6868 9.72323 30.6813 9.72536 30.6689 9.72536V13.7254C32.8199 13.7254 34.6689 12.0188 34.6689 9.78565H30.6689ZM30.6689 9.72536C30.6566 9.72536 30.6511 9.72323 30.6495 9.72256C30.6467 9.72141 30.646 9.72043 30.6471 9.72154C30.6483 9.72269 30.6538 9.7284 30.6594 9.74117C30.6656 9.75548 30.6689 9.77206 30.6689 9.78565H26.6689C26.6689 12.0188 28.518 13.7254 30.6689 13.7254V9.72536ZM30.6689 9.78565C30.6689 9.79925 30.6656 9.81582 30.6594 9.83013C30.6538 9.8429 30.6483 9.84862 30.6471 9.84976C30.646 9.85088 30.6467 9.8499 30.6495 9.84874C30.6511 9.84808 30.6566 9.84595 30.6689 9.84595V5.84595C28.518 5.84595 26.6689 7.55255 26.6689 9.78565H30.6689ZM30.6689 9.84595C30.6813 9.84595 30.6868 9.84808 30.6884 9.84874C30.6912 9.8499 30.6919 9.85088 30.6908 9.84976C30.6896 9.84862 30.6841 9.8429 30.6785 9.83013C30.6723 9.81582 30.6689 9.79925 30.6689 9.78565H34.6689C34.6689 7.55255 32.8199 5.84595 30.6689 5.84595V9.84595Z" fill="#2E363E" mask="url(#path-3-inside-1_830_914)"/>
</g>
<defs>
<clipPath id="clip0_830_914">
<rect width="40" height="38.7941" fill="white" transform="translate(0 0.733887)"/>
</clipPath>
</defs>
</svg>
