<?xml version="1.0" encoding="utf-8"?><svg viewBox="0 0 186 60" xmlns="http://www.w3.org/2000/svg" xmlns:xlink="http://www.w3.org/1999/xlink"><style>:root>svg{display:none}:root>svg:target{display:block}</style><svg fill="none" viewBox="0 0 186 38" id="cake-logo" xmlns="http://www.w3.org/2000/svg"><path fill="#fff" d="M21.06 22.323c-11.554 0-20.91-3.036-20.91-6.77v14.483c0 3.733 9.356 6.77 20.91 6.77 11.555 0 20.911-3.037 20.911-6.77V15.554c0 3.733-9.356 6.77-20.91 6.77z"/><path fill="#fff" d="M24.275 6.432v3.61a3.08 3.08 0 01-3.091 3.078 3.089 3.089 0 01-3.091-3.077V6.419c-10.14.478-17.93 3.296-17.93 6.7 0 3.734 9.356 6.77 20.911 6.77 11.555 0 20.911-3.036 20.911-6.77-.014-3.377-7.68-6.18-17.71-6.687z"/><path fill="#fff" d="M19.521 9.756c0 .656.687 1.846 1.553 1.846.852 0 1.552-1.231 1.552-1.887V6.692c0-.656-.686-4.91-1.552-4.91-.852 0-1.553 4.254-1.553 4.91"/><path class="page__header-logo--small olo" stroke="#fff" stroke-linecap="round" stroke-miterlimit="10" stroke-width="1.906" d="M51.85 1.81l.165 35.023"/><path class="page__header-logo--small olo" fill="#fff" d="M78.957 22.46c-.123-2.763-.275-6.086-.26-8.999h-.083a142.116 142.116 0 01-2.528 8.206l-3.147 9.244h-3.022l-2.858-9.108c-.838-2.748-1.608-5.648-2.17-8.342h-.07c-.096 2.804-.22 6.21-.384 9.122l-.481 8.588h-3.655l1.43-21.374h5.151l2.803 8.588c.77 2.53 1.456 5.06 1.979 7.439h.096c.577-2.339 1.319-4.95 2.143-7.467l2.981-8.574h5.084l1.237 21.374h-3.82l-.426-8.697zm16.803 8.725l-.275-1.723h-.096c-.934 1.217-2.57 2.064-4.575 2.064-3.146 0-4.891-2.242-4.891-4.594 0-3.898 3.49-5.867 9.205-5.84v-.26c0-1.012-.398-2.707-3.146-2.694-1.525 0-3.119.493-4.177 1.15l-.783-2.53c1.168-.712 3.174-1.368 5.62-1.368 4.973 0 6.388 3.118 6.388 6.51v5.565c0 1.409.069 2.762.247 3.72H95.76zm-.522-7.563c-2.762-.04-5.413.547-5.413 2.9 0 1.517 1.003 2.228 2.24 2.228 1.566 0 2.692-1.012 3.063-2.133.082-.273.11-.574.11-.848v-2.147zm7.969-2.912c0-2.066-.041-3.584-.124-4.965h3.394l.151 2.94h.11c.769-2.174 2.569-3.282 4.245-3.282.385 0 .605.014.921.082v3.68a5.415 5.415 0 00-1.154-.11c-1.869 0-3.16 1.19-3.518 2.954a6.234 6.234 0 00-.096 1.176v8.013h-3.929V20.71zm9.878 8.218l5.839-7.412a61.713 61.713 0 012.267-2.584v-.069h-7.529V15.76h12.311l-.014 2.38-5.688 7.247c-.77.93-1.498 1.82-2.295 2.64v.068h8.175v3.104h-13.079v-2.27h.013zm19.963-17.504c0 1.162-.852 2.106-2.239 2.106-1.305 0-2.157-.944-2.144-2.106 0-1.19.88-2.106 2.199-2.106 1.332 0 2.171.902 2.184 2.106zm-4.149 19.76V15.746h3.929v15.44h-3.929zm8.147-10.324c0-1.997-.055-3.665-.123-5.115h3.448l.193 2.366h.068c1.141-1.737 2.94-2.721 5.317-2.721 3.559 0 6.513 3.036 6.513 7.85 0 5.606-3.518 8.287-7.048 8.287-1.951 0-3.573-.807-4.356-2.066h-.068v7.987h-3.916V20.86h-.028zm3.93 3.856c0 .383.027.739.11 1.067.398 1.586 1.772 2.735 3.448 2.735 2.487 0 3.943-2.051 3.943-5.087 0-2.735-1.332-4.95-3.86-4.95-1.608 0-3.105 1.175-3.504 2.885a3.98 3.98 0 00-.137.984v2.366zm23.439 6.469l-.275-1.723h-.096c-.934 1.217-2.569 2.064-4.575 2.064-3.147 0-4.891-2.242-4.891-4.594 0-3.898 3.489-5.867 9.205-5.84v-.26c0-1.012-.399-2.707-3.146-2.694-1.526 0-3.119.493-4.177 1.15l-.783-2.53c1.167-.712 3.173-1.368 5.619-1.368 4.974 0 6.389 3.118 6.389 6.51v5.565c0 1.409.068 2.762.247 3.72h-3.517zm-.522-7.563c-2.762-.04-5.414.547-5.414 2.9 0 1.517 1.003 2.228 2.24 2.228 1.566 0 2.693-1.012 3.064-2.133.082-.273.11-.574.11-.848v-2.147zm7.968-3.282a87.95 87.95 0 00-.123-4.595h3.421l.192 2.325h.096c.687-1.203 2.364-2.667 4.946-2.667 2.707 0 5.51 1.737 5.51 6.62v9.175h-3.93v-8.71c0-2.216-.81-3.898-2.953-3.898-1.567 0-2.638 1.094-3.051 2.297-.123.315-.178.793-.178 1.245v9.08h-3.93V20.34z"/></svg><svg fill="none" viewBox="0 0 50 50" id="cake-phone" xmlns="http://www.w3.org/2000/svg"><path fill="#fff" d="M31.138 27.26c-.65-.642-1.462-.642-2.109 0-.493.49-.986.978-1.47 1.475-.133.137-.245.166-.407.075-.319-.174-.659-.315-.965-.506-1.43-.899-2.627-2.055-3.688-3.356-.526-.646-.994-1.338-1.322-2.117-.066-.157-.054-.261.075-.39.493-.476.974-.965 1.458-1.454.676-.68.676-1.475-.004-2.159-.385-.39-.77-.77-1.156-1.16-.398-.398-.791-.8-1.193-1.193-.65-.634-1.463-.634-2.11.004-.496.489-.973.99-1.478 1.471-.469.443-.705.986-.755 1.62-.078 1.032.175 2.006.53 2.954.73 1.964 1.84 3.709 3.187 5.308a19.717 19.717 0 006.53 5.109c1.144.555 2.33.982 3.618 1.052.886.05 1.657-.174 2.274-.866.423-.472.9-.903 1.347-1.355.663-.67.667-1.483.008-2.146a636.95 636.95 0 00-2.37-2.366z"/><rect stroke="#fff" width="48" height="48" x="1" y="1" stroke-width="2" rx="24"/></svg><svg viewBox="0 0 24 24" id="icon-add" xmlns="http://www.w3.org/2000/svg"><path d="M22.345 10.345h-8.69v-8.69A1.66 1.66 0 0012 0a1.66 1.66 0 00-1.655 1.655v8.69h-8.69A1.66 1.66 0 000 12c0 .91.745 1.655 1.655 1.655h8.69v8.69c0 .91.745 1.655 1.655 1.655a1.66 1.66 0 001.655-1.655v-8.69h8.69A1.66 1.66 0 0024 12a1.66 1.66 0 00-1.655-1.655z"/></svg><svg viewBox="0 0 44 44" id="icon-burger" xmlns="http://www.w3.org/2000/svg"><rect x="13.2" y="14.667" width="17.6" height="1.467" rx=".733"/><rect x="13.2" y="29.333" width="17.6" height="1.467" rx=".733"/><rect x="13.2" y="22" width="17.6" height="1.467" rx=".733"/><rect x="1" y="1" width="42" height="42" rx="21" fill="none"/></svg><svg viewBox="0 0 24 24" id="icon-del" xmlns="http://www.w3.org/2000/svg"><path d="M22.5 14h-21a1.5 1.5 0 110-3h21a1.5 1.5 0 110 3z"/></svg><svg fill="none" viewBox="0 0 44 50" id="icon-play" xmlns="http://www.w3.org/2000/svg"><path fill="#fff" d="M44 25L0 50V0l44 25z"/></svg><svg fill="none" viewBox="0 0 40 24" id="icon-slider" xmlns="http://www.w3.org/2000/svg"><path fill="#fff" d="M2 10.5a1.5 1.5 0 000 3v-3zm37.06 2.56a1.5 1.5 0 000-2.12l-9.545-9.547a1.5 1.5 0 10-2.122 2.122L35.88 12l-8.486 8.485a1.5 1.5 0 102.122 2.122l9.546-9.546zM2 13.5h36v-3H2v3z"/></svg><svg viewBox="0 0 24 24" id="icon-star" xmlns="http://www.w3.org/2000/svg"><path d="M12 0l3.527 7.146 7.886 1.146-5.707 5.562 1.347 7.854L12 18l-7.053 3.708 1.347-7.854L.587 8.292l7.886-1.146L12 0z"/></svg><svg viewBox="0 0 40 41" id="icon_comments" xmlns="http://www.w3.org/2000/svg"><path fill-rule="evenodd" d="M3.917 12.371c2.63-5.218 7.594-8.799 13.425-9.684 1.235-.188 3.832-.191 5.085-.008 2.507.368 4.691 1.149 6.791 2.427 4.419 2.69 7.41 7.057 8.392 12.255.208 1.097.234 4.731.043 5.8-.691 3.86-2.253 6.965-4.87 9.686l-.754.784 1.2 2.396c1.273 2.543 1.365 2.841 1.001 3.23-.069.075-.126.137-.193.184-.341.239-.95.096-4.784-.79-2.941-.679-4.417-.98-4.642-.947-.182.027-.73.134-1.217.237-4.094.872-8.605.124-12.393-2.054C6.527 33.316 3.3 28.85 2.345 23.91c-.776-4.013-.24-7.943 1.572-11.539zm28.938-.64c-2.272-3.374-5.645-5.655-9.704-6.562-1.295-.29-4.277-.377-5.59-.165-4.383.71-8.17 3.136-10.633 6.812a15.472 15.472 0 00-1.046 15.367c2.279 4.67 6.616 7.832 11.896 8.677 1.65.263 4.356.092 6.157-.39l.691-.185 3.212.737 3.42.786c.087.02.047-.045-.106-.291-.165-.268-.462-.749-.87-1.567a16.556 16.556 0 00-.78-1.41c-.151-.246-.192-.313-.164-.428.042-.168.712-.828 1.25-1.346 3.397-3.268 5.028-7.21 4.893-11.823-.092-3.109-.907-5.657-2.626-8.212z" clip-rule="evenodd"/></svg><svg viewBox="0 0 40 41" id="icon_heart" xmlns="http://www.w3.org/2000/svg"><path fill-rule="evenodd" d="M9.854 2.887c-2.491.308-4.575 1.318-6.345 3.074C1.926 7.53.973 9.198.42 11.36c-.963 3.756-.263 7.455 2.067 10.927 1.494 2.227 3.42 4.27 6.963 7.388 2.254 1.982 9.123 7.762 9.457 7.956.314.183.43.204 1.094.204.663 0 .78-.021 1.094-.204.335-.194 7.22-5.987 9.457-7.957 3.553-3.128 5.472-5.163 6.963-7.387 2.33-3.472 3.03-7.17 2.067-10.927-.554-2.163-1.507-3.83-3.09-5.4-1.578-1.566-3.267-2.47-5.481-2.932-1.106-.231-3.155-.251-4.128-.04-2.699.583-4.774 1.918-6.667 4.288l-.215.27-.215-.27c-1.86-2.33-3.904-3.664-6.506-4.25-.777-.175-2.559-.248-3.425-.14zm2.613 2.35c2.215.382 4.132 1.65 5.647 3.735l.705.971c.582.8 1.78.8 2.362 0l.705-.97c2.07-2.852 4.952-4.195 8.093-3.772 3.486.469 6.208 2.879 7.248 6.416.821 2.796.459 5.732-1.034 8.377-1.251 2.215-3.337 4.532-6.97 7.743-1.76 1.555-9.153 7.826-9.226 7.826-.072 0-7.437-6.253-9.22-7.827-5.587-4.935-7.793-8.017-8.324-11.634-.343-2.337.152-4.852 1.342-6.825 1.8-2.986 5.305-4.618 8.672-4.04z" clip-rule="evenodd"/></svg><svg viewBox="0 0 40 40" id="icon_insta" xmlns="http://www.w3.org/2000/svg"><g clip-path="url(#ka)"><rect width="37" fill="none" height="35.79" x="1.5" y="2.23" rx="8.5"/><path fill="none" d="M27.83 20.13A7.7 7.7 0 0120 27.68a7.7 7.7 0 01-7.83-7.55A7.7 7.7 0 0120 12.58a7.7 7.7 0 017.83 7.55z"/><mask id="ka"><ellipse cx="30.67" cy="9.79" rx="2" ry="1.94"/></mask><path d="M30.67 9.79v-.05l.02-.02h-.02v4c2.15 0 4-1.7 4-3.93h-4zm0-.06h-.02s0-.01 0 0v.01c.02.02.02.03.02.05h-4a3.97 3.97 0 004 3.94v-4zm0 .06l-.01.04-.01.02h.02v-4c-2.15 0-4 1.7-4 3.94h4zm0 .06h.02l-.01-.02a.12.12 0 01-.01-.04h4a3.97 3.97 0 00-4-3.94v4z" mask="url(#ka)"/></g><defs><clipPath id="ka"><path d="M0 .73h40v38.8H0z"/></clipPath></defs></svg><svg viewBox="0 0 40 41" id="icon_share" xmlns="http://www.w3.org/2000/svg"><path fill-rule="evenodd" d="M37.559 2.599c-.577.181-34.994 14-35.155 14.115-.262.186-.456.703-.392 1.044.104.556.086.546 7.373 4.077 3.774 1.83 6.892 3.356 6.928 3.392.036.037 1.562 3.155 3.391 6.93 3.531 7.288 3.521 7.27 4.076 7.375.341.064.858-.13 1.044-.392.187-.262 14.04-34.886 14.136-35.332.067-.309.057-.383-.088-.658-.265-.498-.786-.717-1.313-.551zM25.12 14.863l-8.208 8.21-5.555-2.695c-3.861-1.873-5.525-2.714-5.455-2.758.128-.081 27.258-10.952 27.354-10.96.04-.005-3.621 3.687-8.136 8.203zm4.296 7.092c-3.005 7.517-5.487 13.69-5.515 13.72-.029.03-1.263-2.444-2.743-5.496l-2.691-5.55 8.187-8.19c4.503-4.504 8.196-8.18 8.206-8.17.011.01-2.439 6.17-5.444 13.686z" clip-rule="evenodd"/></svg><svg viewBox="0 0 60 60" id="insta-social" xmlns="http://www.w3.org/2000/svg"><path d="M40.6 15H19.4a4.4 4.4 0 00-4.4 4.4v21.2a4.4 4.4 0 004.4 4.4h21.2a4.4 4.4 0 004.4-4.4V19.4a4.4 4.4 0 00-4.4-4.4zM30.07 37.85a7.92 7.92 0 010-15.82 7.92 7.92 0 010 15.82zm8.79-14.06a2.64 2.64 0 110-5.28 2.64 2.64 0 010 5.28z"/><path d="M38.82 20.25a.88.88 0 100 1.76.88.88 0 000-1.76zm-8.8 3.52a6.16 6.16 0 10.03 12.32 6.16 6.16 0 00-.02-12.32z"/><path class="icon-stroke" d="M58.5 30a28.5 28.5 0 11-57 0 28.5 28.5 0 0157 0z" fill="none"/></svg><svg viewBox="0 0 60 60" id="tg-social" xmlns="http://www.w3.org/2000/svg"><path class="icon-stroke" d="M58.5 30c0 15.74-12.76 28.5-28.5 28.5S1.5 45.74 1.5 30 14.26 1.5 30 1.5 58.5 14.26 58.5 30z" fill="none"/><path d="M43.886 14.814L11.38 27.35c-2.218.89-2.206 2.128-.406 2.68l8.344 2.602 19.31-12.18c.912-.558 1.746-.26 1.06.35l-15.642 14.12h-.004.004l-.576 8.602c.842 0 1.214-.386 1.688-.842l4.054-3.942 8.432 6.228c1.554.856 2.67.416 3.058-1.44l5.534-26.084c.566-2.272-.868-3.3-2.35-2.63z"/></svg><svg viewBox="0 0 60 60" id="vk-social" xmlns="http://www.w3.org/2000/svg"><path d="M45.218 33.244c1.398 1.366 2.878 2.652 4.132 4.16.556.666 1.08 1.354 1.48 2.13.57 1.106.054 2.318-.934 2.384l-6.146-.002c-1.588.132-2.852-.51-3.916-1.594-.85-.866-1.64-1.788-2.458-2.684a5.747 5.747 0 00-1.106-.984c-.84-.544-1.566-.378-2.046.498-.49.89-.6 1.878-.648 2.868-.066 1.45-.504 1.828-1.958 1.896-3.108.146-6.056-.326-8.796-1.892-2.416-1.38-4.288-3.332-5.918-5.54-3.174-4.304-5.606-9.028-7.79-13.888-.492-1.094-.132-1.68 1.076-1.7 2.006-.037 4.012-.038 6.018-.004.816.014 1.356.48 1.67 1.25 1.084 2.668 2.412 5.206 4.078 7.56.444.626.896 1.25 1.54 1.692.714.49 1.256.328 1.592-.466.214-.506.308-1.046.354-1.588.16-1.854.18-3.708-.098-5.554-.172-1.156-.82-1.902-1.974-2.12-.586-.112-.5-.33-.216-.664.496-.58.96-.94 1.888-.94h6.944c1.094.214 1.34.706 1.488 1.808l.006 7.718c-.012.426.214 1.69.98 1.97.614.202 1.02-.29 1.386-.68 1.666-1.766 2.852-3.852 3.914-6.01.47-.952.874-1.938 1.268-2.924.292-.73.746-1.09 1.57-1.078l6.686.008c.198 0 .398.002.592.036 1.128.194 1.436.678 1.088 1.778-.55 1.726-1.616 3.166-2.658 4.608-1.116 1.544-2.308 3.034-3.414 4.586-1.016 1.418-.936 2.132.326 3.362z"/><path class="icon-stroke" d="M58.5 30c0 15.74-12.76 28.5-28.5 28.5S1.5 45.74 1.5 30 14.26 1.5 30 1.5 58.5 14.26 58.5 30z" fill="none"/></svg></svg>