<svg xmlns="http://www.w3.org/2000/svg" width="186" height="38" fill="none">
    <path fill="#fff" d="M21.06 22.323c-11.554 0-20.91-3.036-20.91-6.77v14.483c0 3.733 9.356 6.77 20.91 6.77 11.555 0 20.911-3.037 20.911-6.77V15.554c0 3.733-9.356 6.77-20.91 6.77Z"/>
    <path fill="#fff" d="M24.275 6.432v3.61a3.08 3.08 0 0 1-3.091 3.078 3.089 3.089 0 0 1-3.091-3.077V6.419c-10.14.478-17.93 3.296-17.93 6.7 0 3.734 9.356 6.77 20.911 6.77 11.555 0 20.911-3.036 20.911-6.77-.014-3.377-7.68-6.18-17.71-6.687Z"/>
    <path fill="#fff" d="M19.521 9.756c0 .656.687 1.846 1.553 1.846.852 0 1.552-1.231 1.552-1.887V6.692c0-.656-.686-4.91-1.552-4.91-.852 0-1.553 4.254-1.553 4.91"/>
    <path class="page__header-logo--small olo" stroke="#fff" stroke-linecap="round" stroke-miterlimit="10" stroke-width="1.906" d="m51.85 1.81.165 35.023"/>
    <path class="page__header-logo--small olo" fill="#fff" d="M78.957 22.46c-.123-2.763-.275-6.086-.26-8.999h-.083a142.116 142.116 0 0 1-2.528 8.206l-3.147 9.244h-3.022l-2.858-9.108c-.838-2.748-1.608-5.648-2.17-8.342h-.07c-.096 2.804-.22 6.21-.384 9.122l-.481 8.588h-3.655l1.43-21.374h5.151l2.803 8.588c.77 2.53 1.456 5.06 1.979 7.439h.096c.577-2.339 1.319-4.95 2.143-7.467l2.981-8.574h5.084l1.237 21.374h-3.82l-.426-8.697ZM95.76 31.185l-.275-1.723h-.096c-.934 1.217-2.57 2.064-4.575 2.064-3.146 0-4.891-2.242-4.891-4.594 0-3.898 3.49-5.867 9.205-5.84v-.26c0-1.012-.398-2.707-3.146-2.694-1.525 0-3.119.493-4.177 1.15l-.783-2.53c1.168-.712 3.174-1.368 5.62-1.368 4.973 0 6.388 3.118 6.388 6.51v5.565c0 1.409.069 2.762.247 3.72H95.76Zm-.522-7.563c-2.762-.04-5.413.547-5.413 2.9 0 1.517 1.003 2.228 2.24 2.228 1.566 0 2.692-1.012 3.063-2.133.082-.273.11-.574.11-.848v-2.147ZM103.207 20.71c0-2.066-.041-3.584-.124-4.965h3.394l.151 2.94h.11c.769-2.174 2.569-3.282 4.245-3.282.385 0 .605.014.921.082v3.68a5.415 5.415 0 0 0-1.154-.11c-1.869 0-3.16 1.19-3.518 2.954a6.234 6.234 0 0 0-.096 1.176v8.013h-3.929V20.71ZM113.085 28.928l5.839-7.412a61.713 61.713 0 0 1 2.267-2.584v-.069h-7.529V15.76h12.311l-.014 2.38-5.688 7.247c-.77.93-1.498 1.82-2.295 2.64v.068h8.175v3.104h-13.079v-2.27h.013ZM133.048 11.424c0 1.162-.852 2.106-2.239 2.106-1.305 0-2.157-.944-2.144-2.106 0-1.19.88-2.106 2.199-2.106 1.332 0 2.171.902 2.184 2.106Zm-4.149 19.76V15.746h3.929v15.44h-3.929ZM137.046 20.86c0-1.997-.055-3.665-.123-5.115h3.448l.193 2.366h.068c1.141-1.737 2.94-2.721 5.317-2.721 3.559 0 6.513 3.036 6.513 7.85 0 5.606-3.518 8.287-7.048 8.287-1.951 0-3.573-.807-4.356-2.066h-.068v7.987h-3.916V20.86h-.028Zm3.93 3.856c0 .383.027.739.11 1.067.398 1.586 1.772 2.735 3.448 2.735 2.487 0 3.943-2.051 3.943-5.087 0-2.735-1.332-4.95-3.86-4.95-1.608 0-3.105 1.175-3.504 2.885a3.98 3.98 0 0 0-.137.984v2.366ZM164.415 31.185l-.275-1.723h-.096c-.934 1.217-2.569 2.064-4.575 2.064-3.147 0-4.891-2.242-4.891-4.594 0-3.898 3.489-5.867 9.205-5.84v-.26c0-1.012-.399-2.707-3.146-2.694-1.526 0-3.119.493-4.177 1.15l-.783-2.53c1.167-.712 3.173-1.368 5.619-1.368 4.974 0 6.389 3.118 6.389 6.51v5.565c0 1.409.068 2.762.247 3.72h-3.517Zm-.522-7.563c-2.762-.04-5.414.547-5.414 2.9 0 1.517 1.003 2.228 2.24 2.228 1.566 0 2.693-1.012 3.064-2.133.082-.273.11-.574.11-.848v-2.147ZM171.861 20.34a87.95 87.95 0 0 0-.123-4.595h3.421l.192 2.325h.096c.687-1.203 2.364-2.667 4.946-2.667 2.707 0 5.51 1.737 5.51 6.62v9.175h-3.93v-8.71c0-2.216-.81-3.898-2.953-3.898-1.567 0-2.638 1.094-3.051 2.297-.123.315-.178.793-.178 1.245v9.08h-3.93V20.34Z"/>
</svg>
