<svg xmlns="http://www.w3.org/2000/svg" width="40" height="40">
        <g clip-path="url(#a)">
                <rect width="37" fill="none" height="35.79" x="1.5" y="2.23" stroke-width="3" rx="8.5"/>
                <path fill="none" stroke-width="3" d="M27.83 20.13A7.7 7.7 0 0 1 20 27.68a7.7 7.7 0 0 1-7.83-7.55A7.7 7.7 0 0 1 20 12.58a7.7 7.7 0 0 1 7.83 7.55Z"/>
                <mask id="b">
                        <ellipse cx="30.67" cy="9.79" rx="2" ry="1.94"/>
                </mask>
                <path d="M30.67 9.79v-.05l.02-.02h-.02v4c2.15 0 4-1.7 4-3.93h-4Zm0-.06h-.02s0-.01 0 0v.01c.02.02.02.03.02.05h-4a3.97 3.97 0 0 0 4 3.94v-4Zm0 .06-.01.04-.01.02h.02v-4c-2.15 0-4 1.7-4 3.94h4Zm0 .06h.02l-.01-.02a.12.12 0 0 1-.01-.04h4a3.97 3.97 0 0 0-4-3.94v4Z" mask="url(#b)"/>
        </g>
        <defs>
                <clipPath id="a">
                        <path d="M0 .73h40v38.8H0z"/>
                </clipPath>
        </defs>
</svg>
