<svg width="40" height="41" viewBox="0 0 40 41" fill="none" xmlns="http://www.w3.org/2000/svg">
<path fill-rule="evenodd" clip-rule="evenodd" d="M3.91722 12.371C6.54727 7.15286 11.5107 3.57246 17.3419 2.68699C18.5768 2.49945 21.1741 2.49568 22.4274 2.67946C24.9339 3.04721 27.1183 3.82774 29.2185 5.1063C33.6368 7.79586 36.6274 12.1631 37.6103 17.3608C37.8178 18.4576 37.8443 22.092 37.6528 23.1618C36.9619 27.0206 35.4004 30.1265 32.7832 32.8475L32.0293 33.6312L33.2287 36.0271C34.5017 38.5701 34.5942 38.8681 34.2302 39.2579C34.1611 39.3319 34.1042 39.3939 34.037 39.441C33.6958 39.6799 33.0871 39.5368 29.2529 38.6513C26.3119 37.9721 24.836 37.6709 24.6106 37.7042C24.4289 37.731 23.8815 37.8377 23.3942 37.9414C19.3002 38.8127 14.7891 38.0649 11.0009 35.8873C6.52725 33.3156 3.29995 28.85 2.34511 23.9103C1.56934 19.8973 2.10486 15.9669 3.91722 12.371ZM32.8546 11.7309C30.5833 8.35666 27.2104 6.07569 23.1512 5.1687C21.8561 4.87935 18.8736 4.79164 17.5602 5.00436C13.1775 5.71412 9.39169 8.13962 6.92806 11.8162C3.87432 16.3732 3.47451 22.2488 5.8822 27.1832C8.16056 31.8522 12.4975 35.0154 17.7781 35.8596C19.4284 36.1233 22.1339 35.9523 23.9346 35.4703L24.6262 35.2853L27.8381 36.0223C29.6046 36.4276 31.1433 36.7811 31.2573 36.8078C31.3446 36.8282 31.3045 36.7633 31.1524 36.5168C30.9874 36.2493 30.6904 35.768 30.2812 34.9502C29.8955 34.1791 29.6477 33.7766 29.502 33.54C29.3509 33.2943 29.3096 33.2274 29.3382 33.1124C29.38 32.9441 30.0505 32.2836 30.5886 31.7658C33.9846 28.4977 35.6158 24.5551 35.4806 19.9426C35.3894 16.8345 34.5744 14.286 32.8546 11.7309Z" fill="#2E363E"/>
</svg>
