<svg width="40" height="41" viewBox="0 0 40 41" fill="none" xmlns="http://www.w3.org/2000/svg">
<path fill-rule="evenodd" clip-rule="evenodd" d="M9.85356 2.88656C7.36278 3.19501 5.27904 4.20467 3.50947 5.9608C1.9263 7.53188 0.972743 9.19783 0.41863 11.361C-0.543604 15.1173 0.156032 18.816 2.48573 22.2885C3.97957 24.5151 5.90599 26.5588 9.44919 29.6757C11.7031 31.6583 18.5724 37.4376 18.9058 37.6317C19.22 37.8145 19.3368 37.8364 20 37.8364C20.6628 37.8364 20.7802 37.8145 21.0942 37.632C21.4286 37.4376 28.3134 31.6447 30.5508 29.6751C34.1038 26.5475 36.0225 24.5121 37.5143 22.2885C39.844 18.816 40.5436 15.1173 39.5814 11.361C39.0273 9.19783 38.0737 7.53188 36.4905 5.9608C34.9129 4.3952 33.224 3.49174 31.0098 3.02907C29.9039 2.79792 27.8555 2.77773 26.8817 2.98822C24.1831 3.57167 22.1083 4.90651 20.2149 7.27723L20 7.54637L19.7851 7.27723C17.9247 4.94774 15.8814 3.61305 13.2787 3.02729C12.5019 2.85249 10.7203 2.77927 9.85356 2.88656ZM12.4674 5.23793C14.6821 5.61875 16.599 6.88662 18.1136 8.97224C18.3753 9.33256 18.6928 9.76941 18.8192 9.94306C19.401 10.7425 20.599 10.7425 21.1808 9.94306C21.3072 9.76941 21.6247 9.33256 21.8864 8.97224C23.9567 6.12135 26.8383 4.77834 29.9786 5.20078C33.4648 5.66977 36.1872 8.07972 37.2267 11.6171C38.0483 14.4133 37.6859 17.3494 36.1928 19.9938C34.9418 22.2093 32.856 24.5261 29.2222 27.7367C27.4625 29.2915 20.0699 35.5626 19.9968 35.5627C19.9252 35.5628 12.56 29.31 10.7778 27.7361C5.19002 22.8014 2.98443 19.7189 2.45322 16.1016C2.11012 13.7655 2.60468 11.2499 3.79497 9.2766C5.59587 6.29091 9.10039 4.65887 12.4674 5.23793Z" fill="#2E363E"/>
</svg>
