<svg xmlns="http://www.w3.org/2000/svg" width="40" height="41">
    <path fill-rule="evenodd" d="M37.559 2.599c-.577.181-34.994 14-35.155 14.115-.262.186-.456.703-.392 1.044.104.556.086.546 7.373 4.077 3.774 1.83 6.892 3.356 6.928 3.392.036.037 1.562 3.155 3.391 6.93 3.531 7.288 3.521 7.27 4.076 7.375.341.064.858-.13 1.044-.392.187-.262 14.04-34.886 14.136-35.332.067-.309.057-.383-.088-.658-.265-.498-.786-.717-1.313-.551ZM25.12 14.863l-8.208 8.21-5.555-2.695c-3.861-1.873-5.525-2.714-5.455-2.758.128-.081 27.258-10.952 27.354-10.96.04-.005-3.621 3.687-8.136 8.203Zm4.296 7.092c-3.005 7.517-5.487 13.69-5.515 13.72-.029.03-1.263-2.444-2.743-5.496l-2.691-5.55 8.187-8.19c4.503-4.504 8.196-8.18 8.206-8.17.011.01-2.439 6.17-5.444 13.686Z" clip-rule="evenodd"/>
</svg>
