<svg xmlns="http://www.w3.org/2000/svg" width="60" height="60">
        <path d="M40.6 15H19.4a4.4 4.4 0 0 0-4.4 4.4v21.2a4.4 4.4 0 0 0 4.4 4.4h21.2a4.4 4.4 0 0 0 4.4-4.4V19.4a4.4 4.4 0 0 0-4.4-4.4ZM30.07 37.85a7.92 7.92 0 0 1 0-15.82 7.92 7.92 0 0 1 0 15.82Zm8.79-14.06a2.64 2.64 0 1 1 0-5.28 2.64 2.64 0 0 1 0 5.28Z"/>
        <path d="M38.82 20.25a.88.88 0 1 0 0 1.76.88.88 0 0 0 0-1.76Zm-8.8 3.52a6.16 6.16 0 1 0 .03 12.32 6.16 6.16 0 0 0-.02-12.32Z"/>
        <path class="icon-stroke" stroke-width="3" d="M58.5 30a28.5 28.5 0 1 1-57 0 28.5 28.5 0 0 1 57 0Z" fill="none"/>
</svg>
