<svg width="60" height="60" viewBox="0 0 60 60" fill="none" xmlns="http://www.w3.org/2000/svg">
<g clip-path="url(#clip0_188_480)">
<path d="M58.5 30C58.5 45.7401 45.7401 58.5 30 58.5C14.2599 58.5 1.5 45.7401 1.5 30C1.5 14.2599 14.2599 1.5 30 1.5C45.7401 1.5 58.5 14.2599 58.5 30Z" stroke="#2E363E" stroke-width="3"/>
<path d="M40.606 15H19.394C18.2291 15.0016 17.1124 15.465 16.2887 16.2887C15.465 17.1124 15.0016 18.2291 15 19.394V40.606C15.0016 41.7709 15.465 42.8876 16.2887 43.7113C17.1124 44.535 18.2291 44.9984 19.394 45H40.606C41.7709 44.9984 42.8876 44.535 43.7113 43.7113C44.535 42.8876 44.9984 41.7709 45 40.606V19.394C44.9984 18.2291 44.535 17.1124 43.7113 16.2887C42.8876 15.465 41.7709 15.0016 40.606 15ZM30.058 37.852C27.961 37.8494 25.9505 37.0151 24.4677 35.5323C22.9849 34.0495 22.1506 32.039 22.148 29.942C22.1506 27.8449 22.9849 25.8345 24.4677 24.3517C25.9505 22.8689 27.961 22.0346 30.058 22.032C32.1551 22.0346 34.1655 22.8689 35.6483 24.3517C37.1311 25.8345 37.9654 27.8449 37.968 29.942C37.9654 32.039 37.1311 34.0495 35.6483 35.5323C34.1655 37.0151 32.1551 37.8494 30.058 37.852ZM38.848 23.79C38.1485 23.7895 37.4778 23.5114 36.9832 23.0168C36.4886 22.5222 36.2105 21.8515 36.21 21.152C36.2111 20.4529 36.4894 19.7827 36.9839 19.2885C37.4785 18.7944 38.1489 18.5165 38.848 18.516C39.5468 18.5171 40.2167 18.7951 40.7108 19.2892C41.2049 19.7834 41.4829 20.4532 41.484 21.152C41.4835 21.8511 41.2056 22.5215 40.7115 23.0161C40.2173 23.5106 39.5471 23.7889 38.848 23.79Z" fill="#2E363E"/>
<path d="M38.817 20.25C38.5836 20.25 38.3598 20.3427 38.1947 20.5077C38.0297 20.6728 37.937 20.8966 37.937 21.13C37.937 21.3634 38.0297 21.5872 38.1947 21.7523C38.3598 21.9173 38.5836 22.01 38.817 22.01C39.0504 22.01 39.2742 21.9173 39.4393 21.7523C39.6043 21.5872 39.697 21.3634 39.697 21.13C39.697 20.8966 39.6043 20.6728 39.4393 20.5077C39.2742 20.3427 39.0504 20.25 38.817 20.25ZM30.029 23.766C28.3977 23.7676 26.8336 24.4162 25.6799 25.5695C24.5262 26.7228 23.8771 28.2867 23.875 29.918C23.8771 31.549 24.526 33.1125 25.6792 34.2658C26.8325 35.419 28.396 36.0679 30.027 36.07C31.658 36.0679 33.2215 35.419 34.3748 34.2658C35.528 33.1125 36.1769 31.549 36.179 29.918C36.1769 28.287 35.528 26.7235 34.3748 25.5702C33.2215 24.417 31.658 23.7681 30.027 23.766H30.029Z" fill="#2E363E"/>
</g>
<defs>
<clipPath id="clip0_188_480">
<rect width="60" height="60" fill="white"/>
</clipPath>
</defs>
</svg>
