<svg xmlns="http://www.w3.org/2000/svg" width="60" height="60">
    <path class="icon-stroke" stroke-width="3" d="M58.5 30c0 15.74-12.76 28.5-28.5 28.5S1.5 45.74 1.5 30 14.26 1.5 30 1.5 58.5 14.26 58.5 30Z" fill="none"/>
    <path d="M43.886 14.814 11.38 27.35c-2.218.89-2.206 2.128-.406 2.68l8.344 2.602 19.31-12.18c.912-.558 1.746-.26 1.06.35l-15.642 14.12h-.004.004l-.576 8.602c.842 0 1.214-.386 1.688-.842l4.054-3.942 8.432 6.228c1.554.856 2.67.416 3.058-1.44l5.534-26.084c.566-2.272-.868-3.3-2.35-2.63Z"/>
</svg>
