<svg width="60" height="60" viewBox="0 0 60 60" fill="none" xmlns="http://www.w3.org/2000/svg">
<g clip-path="url(#clip0_188_478)">
<path d="M58.5 30C58.5 45.7401 45.7401 58.5 30 58.5C14.2599 58.5 1.5 45.7401 1.5 30C1.5 14.2599 14.2599 1.5 30 1.5C45.7401 1.5 58.5 14.2599 58.5 30Z" stroke="#2E363E" stroke-width="3"/>
<path d="M43.8859 14.8142L11.3799 27.3502C9.16188 28.2402 9.17388 29.4782 10.9739 30.0302L19.3179 32.6322L38.6279 20.4522C39.5399 19.8942 40.3739 20.1922 39.6879 20.8022L24.0459 34.9222H24.0419H24.0459L23.4699 43.5242C24.3119 43.5242 24.6839 43.1382 25.1579 42.6822L29.2119 38.7402L37.6439 44.9682C39.1979 45.8242 40.3139 45.3842 40.7019 43.5282L46.2359 17.4442C46.8019 15.1722 45.3679 14.1442 43.8859 14.8142Z" fill="#2E363E"/>
</g>
<defs>
<clipPath id="clip0_188_478">
<rect width="60" height="60" fill="white"/>
</clipPath>
</defs>
</svg>
