<svg width="60" height="60" viewBox="0 0 60 60" fill="none" xmlns="http://www.w3.org/2000/svg">
<g clip-path="url(#clip0_188_479)">
<path d="M45.2181 33.244C46.6161 34.61 48.0961 35.896 49.3501 37.404C49.9061 38.07 50.4301 38.758 50.8301 39.534C51.4001 40.64 50.8841 41.852 49.8961 41.918L43.7501 41.916C42.1621 42.048 40.8981 41.406 39.8341 40.322C38.9841 39.456 38.1941 38.534 37.3761 37.638C37.0514 37.2637 36.6796 36.9329 36.2701 36.654C35.4301 36.11 34.7041 36.276 34.2241 37.152C33.7341 38.042 33.6241 39.03 33.5761 40.02C33.5101 41.47 33.0721 41.848 31.6181 41.916C28.5101 42.062 25.5621 41.59 22.8221 40.024C20.4061 38.644 18.5341 36.692 16.9041 34.484C13.7301 30.18 11.2981 25.456 9.11406 20.596C8.62206 19.502 8.98206 18.916 10.1901 18.896C12.1959 18.8594 14.2022 18.8581 16.2081 18.892C17.0241 18.906 17.5641 19.372 17.8781 20.142C18.9621 22.81 20.2901 25.348 21.9561 27.702C22.4001 28.328 22.8521 28.952 23.4961 29.394C24.2101 29.884 24.7521 29.722 25.0881 28.928C25.3021 28.422 25.3961 27.882 25.4421 27.34C25.6021 25.486 25.6221 23.632 25.3441 21.786C25.1721 20.63 24.5241 19.884 23.3701 19.666C22.7841 19.554 22.8701 19.336 23.1541 19.002C23.6501 18.422 24.1141 18.062 25.0421 18.062H31.9861C33.0801 18.276 33.3261 18.768 33.4741 19.87L33.4801 27.588C33.4681 28.014 33.6941 29.278 34.4601 29.558C35.0741 29.76 35.4801 29.268 35.8461 28.878C37.5121 27.112 38.6981 25.026 39.7601 22.868C40.2301 21.916 40.6341 20.93 41.0281 19.944C41.3201 19.214 41.7741 18.854 42.5981 18.866L49.2841 18.874C49.4821 18.874 49.6821 18.876 49.8761 18.91C51.0041 19.104 51.3121 19.588 50.9641 20.688C50.4141 22.414 49.3481 23.854 48.3061 25.296C47.1901 26.84 45.9981 28.33 44.8921 29.882C43.8761 31.3 43.9561 32.014 45.2181 33.244Z" fill="#2E363E"/>
<path d="M58.5 30C58.5 45.7401 45.7401 58.5 30 58.5C14.2599 58.5 1.5 45.7401 1.5 30C1.5 14.2599 14.2599 1.5 30 1.5C45.7401 1.5 58.5 14.2599 58.5 30Z" stroke="#2E363E" stroke-width="3"/>
</g>
<defs>
<clipPath id="clip0_188_479">
<rect width="60" height="60" fill="white"/>
</clipPath>
</defs>
</svg>
